<svg width="461" height="93" viewBox="0 0 461 93" fill="none" xmlns="http://www.w3.org/2000/svg">
<path id="JavaScript" d="M26.1 59.9C26.1 65.7667 24.9667 70.7333 22.7 74.8C20.5 78.9333 17.4667 82.1 13.6 84.3C9.73333 86.5667 5.3 87.7667 0.3 87.9V78.5C4.96667 78.2333 8.8 76.5667 11.8 73.5C14.8667 70.5 16.4 65.8667 16.4 59.6V0.699995H26.1V59.9ZM61.9234 74C57.9901 74 54.4234 73.1667 51.2234 71.5C48.0901 69.8333 45.5901 67.4 43.7234 64.2C41.9234 60.9333 41.0234 56.9667 41.0234 52.3C41.0234 47.6333 41.9568 43.6333 43.8234 40.3C45.7568 36.9667 48.3234 34.4 51.5234 32.6C54.7901 30.8 58.3568 29.9 62.2234 29.9C65.9568 29.9 69.1234 30.7 71.7234 32.3C74.3234 33.9 76.3568 35.8333 77.8234 38.1L78.5234 31.6H87.1234V73H77.8234V66.2C77.0234 67.2667 75.8568 68.4 74.3234 69.6C72.8568 70.8 71.0568 71.8333 68.9234 72.7C66.8568 73.5667 64.5234 74 61.9234 74ZM64.4234 66.3C67.8234 66.3 70.7234 65.3667 73.1234 63.5C75.5234 61.5667 77.0901 58.9667 77.8234 55.7V47.5C77.0234 44.6333 75.3568 42.2667 72.8234 40.4C70.2901 38.5333 67.3901 37.6 64.1234 37.6C61.5901 37.6 59.2901 38.2 57.2234 39.4C55.1568 40.6 53.4901 42.2667 52.2234 44.4C51.0234 46.5333 50.4234 49 50.4234 51.8C50.4234 54.5333 51.0568 57 52.3234 59.2C53.5901 61.3333 55.2901 63.0667 57.4234 64.4C59.5568 65.6667 61.8901 66.3 64.4234 66.3ZM120.115 74.2L97.1148 31.6H108.215L120.715 58.1L132.315 31.6H142.715L120.615 74.2H120.115ZM168.466 74C164.533 74 160.966 73.1667 157.766 71.5C154.633 69.8333 152.133 67.4 150.266 64.2C148.466 60.9333 147.566 56.9667 147.566 52.3C147.566 47.6333 148.5 43.6333 150.366 40.3C152.3 36.9667 154.866 34.4 158.066 32.6C161.333 30.8 164.9 29.9 168.766 29.9C172.5 29.9 175.666 30.7 178.266 32.3C180.866 33.9 182.9 35.8333 184.366 38.1L185.066 31.6H193.666V73H184.366V66.2C183.566 67.2667 182.4 68.4 180.866 69.6C179.4 70.8 177.6 71.8333 175.466 72.7C173.4 73.5667 171.066 74 168.466 74ZM170.966 66.3C174.366 66.3 177.266 65.3667 179.666 63.5C182.066 61.5667 183.633 58.9667 184.366 55.7V47.5C183.566 44.6333 181.9 42.2667 179.366 40.4C176.833 38.5333 173.933 37.6 170.666 37.6C168.133 37.6 165.833 38.2 163.766 39.4C161.7 40.6 160.033 42.2667 158.766 44.4C157.566 46.5333 156.966 49 156.966 51.8C156.966 54.5333 157.6 57 158.866 59.2C160.133 61.3333 161.833 63.0667 163.966 64.4C166.1 65.6667 168.433 66.3 170.966 66.3ZM249.558 13.6C247.091 12.3333 244.391 11.2333 241.458 10.3C238.524 9.36666 235.691 8.9 232.958 8.9C229.024 8.9 225.891 9.8 223.558 11.6C221.291 13.4 220.158 15.8333 220.158 18.9C220.158 21.1 220.891 22.9667 222.358 24.5C223.891 26.0333 225.824 27.4 228.158 28.6C230.558 29.7333 233.091 30.8 235.758 31.8C238.758 32.9333 241.658 34.3 244.458 35.9C247.258 37.5 249.558 39.6667 251.358 42.4C253.224 45.0667 254.158 48.6667 254.158 53.2C254.158 57.0667 253.191 60.5667 251.258 63.7C249.324 66.7667 246.591 69.2333 243.058 71.1C239.524 72.9 235.324 73.8 230.458 73.8C225.658 73.8 221.191 73.0333 217.058 71.5C212.991 69.9667 209.524 68.2 206.658 66.2L210.958 58.5C213.291 60.3 216.158 61.8667 219.558 63.2C223.024 64.5333 226.324 65.2 229.458 65.2C231.791 65.2 234.058 64.8 236.258 64C238.524 63.2 240.391 61.9333 241.858 60.2C243.324 58.4 244.058 56.1 244.058 53.3C244.058 50.9 243.391 48.8667 242.058 47.2C240.724 45.5333 238.991 44.1333 236.858 43C234.791 41.8 232.524 40.7333 230.058 39.8C227.791 39 225.491 38.0667 223.158 37C220.824 35.9333 218.658 34.6667 216.658 33.2C214.724 31.6667 213.158 29.8 211.958 27.6C210.758 25.4 210.158 22.7333 210.158 19.6C210.158 15.8 211.058 12.5 212.858 9.7C214.724 6.83333 217.258 4.59999 220.458 3C223.658 1.33333 227.358 0.43333 231.558 0.299994C236.158 0.299994 240.224 0.866662 243.758 2C247.358 3.13333 250.524 4.5 253.258 6.1L249.558 13.6ZM301.661 69.1C299.794 70.6333 297.561 71.8333 294.961 72.7C292.361 73.5667 289.761 74 287.161 74C282.694 74 278.728 73.1 275.261 71.3C271.861 69.5 269.194 66.9667 267.261 63.7C265.394 60.4333 264.461 56.6 264.461 52.2C264.461 47.8 265.461 44 267.461 40.8C269.528 37.5333 272.194 35 275.461 33.2C278.794 31.4 282.394 30.5 286.261 30.5C289.594 30.5 292.561 30.9667 295.161 31.9C297.761 32.8333 300.028 34.1 301.961 35.7L297.261 41.8C296.061 40.9333 294.594 40.1333 292.861 39.4C291.128 38.6 289.194 38.2 287.061 38.2C284.594 38.2 282.361 38.8333 280.361 40.1C278.361 41.3 276.761 42.9667 275.561 45.1C274.361 47.1667 273.761 49.5333 273.761 52.2C273.761 54.8 274.361 57.1667 275.561 59.3C276.761 61.4333 278.428 63.1333 280.561 64.4C282.694 65.6667 285.161 66.3 287.961 66.3C289.694 66.3 291.294 66.0333 292.761 65.5C294.294 64.9667 295.661 64.2333 296.861 63.3L301.661 69.1ZM321.966 31.6L322.666 41.3C323.8 38.9667 325.366 36.9667 327.366 35.3C329.366 33.5667 331.433 32.2667 333.566 31.4C335.766 30.4667 337.666 29.9667 339.266 29.9L338.866 39.2C335.733 39.0667 332.966 39.7 330.566 41.1C328.166 42.4333 326.3 44.2667 324.966 46.6C323.633 48.9333 322.966 51.4333 322.966 54.1V73H313.666V31.6H321.966ZM351.264 31.6H360.564V73H351.264V31.6ZM350.564 16.7C350.564 15.1667 351.131 13.9333 352.264 13C353.464 12 354.764 11.5 356.164 11.5C357.564 11.5 358.831 12 359.964 13C361.097 13.9333 361.664 15.1667 361.664 16.7C361.664 18.2333 361.097 19.5 359.964 20.5C358.831 21.4333 357.564 21.9 356.164 21.9C354.764 21.9 353.464 21.4333 352.264 20.5C351.131 19.5 350.564 18.2333 350.564 16.7ZM401.252 74C398.252 74 395.352 73.3667 392.552 72.1C389.819 70.7667 387.652 69 386.052 66.8V92.9H376.752V30.9H384.852L385.652 37.9C387.652 35.5667 390.119 33.6667 393.052 32.2C396.052 30.6667 399.352 29.9 402.952 29.9C406.886 29.9 410.386 30.8333 413.452 32.7C416.586 34.5667 419.052 37.1667 420.852 40.5C422.652 43.8333 423.552 47.7333 423.552 52.2C423.552 56.6667 422.552 60.5333 420.552 63.8C418.619 67.0667 415.952 69.6 412.552 71.4C409.219 73.1333 405.452 74 401.252 74ZM399.452 66.5C402.052 66.5 404.452 65.9 406.652 64.7C408.919 63.4333 410.719 61.7333 412.052 59.6C413.386 57.4667 414.052 55.0333 414.052 52.3C414.052 49.5 413.419 47.0333 412.152 44.9C410.886 42.7 409.186 41 407.052 39.8C404.986 38.5333 402.652 37.9 400.052 37.9C396.452 37.9 393.419 38.9 390.952 40.9C388.486 42.9 386.852 45.5 386.052 48.7V55.7C386.586 58.8333 388.086 61.4333 390.552 63.5C393.086 65.5 396.052 66.5 399.452 66.5ZM440.03 13.4H449.43V31.7H460.73V39.1H449.43V73H440.03V39.1H432.43V31.7H440.03V13.4Z" fill="black"/>
</svg>
