<svg width="220" height="220" viewBox="0 0 220 220" fill="none" xmlns="http://www.w3.org/2000/svg">
<g clip-path="url(#clip0)">
<path d="M201.243 74.9368L179.941 79.4213L170.94 63.805L189.155 57.2627L201.243 74.9368Z" fill="#2F2E41"/>
<path d="M150.117 95.6277L147.168 90.3317C146.941 89.9227 146.812 89.4731 146.792 89.0139C146.772 88.5548 146.86 88.0971 147.051 87.6724C147.242 87.2478 147.531 86.8664 147.898 86.5546C148.265 86.2428 148.701 86.0081 149.176 85.8666C149.655 85.7241 150.163 85.6797 150.662 85.7367C151.162 85.7937 151.642 85.9507 152.069 86.1966C152.495 86.4425 152.859 86.7714 153.132 87.1601C153.406 87.5489 153.584 87.9881 153.654 88.4469L154.456 93.7369L161.992 104.661V98.1487L170.442 98.9891L169.259 110.596C169.2 111.178 169.014 111.743 168.714 112.258C168.414 112.773 168.004 113.228 167.51 113.595C166.972 113.995 166.345 114.282 165.674 114.437C165.003 114.592 164.303 114.61 163.623 114.49C162.944 114.371 162.301 114.117 161.739 113.745C161.177 113.374 160.71 112.895 160.37 112.34L150.117 95.6277Z" fill="#A0616A"/>
<path d="M214.061 200.882L207.438 201.302L203.099 163.696L177.978 141.007L175.466 201.302H167.93C163.334 164.281 152.311 124.878 166.56 115.376L170.442 109.283L193.964 113.275L194.878 121.679L199.101 131.44L215.011 156.03C216.029 157.604 216.515 159.42 216.407 161.249L214.061 200.882Z" fill="#2F2E41"/>
<path d="M172.175 217.479C171.429 217.479 170.691 217.337 170.006 217.063C169.322 216.788 168.707 216.387 168.199 215.884C167.691 215.38 167.301 214.786 167.054 214.138C166.807 213.49 166.708 212.802 166.763 212.117L167.702 200.462C170.482 197.841 173.061 198.184 175.466 201.092L177.517 211.604C177.658 212.323 177.625 213.061 177.421 213.767C177.217 214.473 176.848 215.129 176.338 215.69C175.829 216.25 175.192 216.7 174.473 217.01C173.754 217.319 172.969 217.479 172.175 217.479Z" fill="#F9A826"/>
<path d="M216.499 220C216.008 220 215.523 219.905 215.074 219.721C214.626 219.537 214.225 219.268 213.897 218.932L201.296 206.025C200.94 205.66 200.668 205.233 200.498 204.768C200.328 204.304 200.262 203.813 200.305 203.324C200.347 202.836 200.498 202.361 200.747 201.928C200.996 201.495 201.338 201.113 201.753 200.805L206.753 197.1L214.061 200.042L219.814 215.755C219.991 216.239 220.041 216.755 219.958 217.26C219.876 217.765 219.664 218.245 219.34 218.66C219.016 219.074 218.59 219.412 218.096 219.645C217.602 219.878 217.054 220 216.499 220Z" fill="#F9A826"/>
<path d="M183.843 73.9124C188.432 73.9124 192.152 70.4903 192.152 66.269C192.152 62.0477 188.432 58.6256 183.843 58.6256C179.255 58.6256 175.535 62.0477 175.535 66.269C175.535 70.4903 179.255 73.9124 183.843 73.9124Z" fill="#A0616A"/>
<path d="M188.598 98.884H178.092L175.695 79.6609C178.251 76.3455 179.083 72.8818 178.092 69.2616H188.598C186.978 72.5128 187.256 75.7678 191.452 79.0307L188.598 98.884Z" fill="#A0616A"/>
<path d="M193.507 113.695C185.278 116.473 177.562 115.615 170.442 110.544C170.27 104.473 168.658 96.9399 166.402 88.7532C166.063 87.5258 166.173 86.23 166.716 85.066C167.258 83.902 168.202 82.9347 169.401 82.3136L176.151 78.8206L183.687 95.2075L190.539 78.4004L195.094 79.3317C196.17 79.5528 197.14 80.0834 197.866 80.8464C198.591 81.6095 199.033 82.5654 199.128 83.5753C200.322 96.0403 199.965 107.279 193.507 113.695Z" fill="#E6E6E6"/>
<path d="M171.356 103.191C166.59 103.615 163.166 101.804 160.851 98.1487L162.449 91.4148C162.449 89.2241 163.208 87.0904 164.616 85.3235C166.023 83.5565 168.007 82.2482 170.277 81.5885L171.127 81.3416L171.356 103.191Z" fill="#E6E6E6"/>
<path d="M205.611 133.233L206.74 137.908C206.869 138.441 206.855 138.994 206.699 139.521C206.543 140.047 206.25 140.531 205.846 140.93C205.441 141.329 204.937 141.631 204.377 141.811C203.818 141.991 203.218 142.042 202.632 141.961C202.136 141.893 201.662 141.731 201.237 141.487C200.812 141.243 200.446 140.92 200.163 140.541C199.879 140.161 199.683 139.731 199.587 139.279C199.492 138.826 199.499 138.36 199.607 137.91L200.84 132.791L197.161 100.04L204.469 97.0983L205.611 133.233Z" fill="#A0616A"/>
<path d="M196.02 101.51C200.785 101.934 204.209 100.123 206.525 96.468L204.926 89.7341C204.926 87.5434 204.167 85.4097 202.759 83.6428C201.352 81.8758 199.369 80.5675 197.098 79.9078L196.248 79.6609L196.02 101.51Z" fill="#E6E6E6"/>
<path d="M188.375 54.8549C188.375 54.8549 193.094 55.6715 194.185 61.0858C194.356 61.9989 194.387 62.9294 194.278 63.8504C194.169 64.8926 194.327 67.0938 196.787 69.6857C198.392 71.3668 199.887 73.1338 201.266 74.9773L196.335 76.1849L194.132 68.6693C193.063 65.0256 191.418 61.5464 189.248 58.3436L189.203 58.2768C189.203 58.2768 187.565 62.3024 183.176 62.8543L184.529 61.215C184.529 61.215 179.398 63.9438 176.49 64.7775C176.159 64.8727 175.861 65.0493 175.631 65.2884C175.4 65.5275 175.244 65.82 175.181 66.1344C175.118 66.4487 175.149 66.773 175.271 67.0724C175.393 67.3717 175.601 67.6347 175.874 67.8331C175.895 67.848 175.916 67.863 175.937 67.8779C178.075 69.372 182.438 72.9371 180.714 76.3858C178.991 79.8346 181.001 80.4634 181.001 80.4634L177.295 79.1664L175.598 78.4982L175.77 79.6519L167.489 79.8115C167.489 79.8115 165.252 79.799 169.226 74.3043C169.226 74.3043 170.185 72.244 169.398 70.6699C168.766 69.4779 168.451 68.1648 168.48 66.8388C168.73 61.2991 171.267 50.0291 188.375 54.8549Z" fill="#2F2E41"/>
<g filter="url(#filter0_d)">
<path d="M156.291 74.9389L155.114 74.5762L165.915 44.9142C166.736 42.6597 167.066 40.2786 166.887 37.9067C166.707 35.5348 166.022 33.2187 164.87 31.0905C163.717 28.9623 162.12 27.0638 160.17 25.5033C158.221 23.9428 155.956 22.7509 153.505 21.9957H153.505L153.505 21.9957L85.1932 0.944018C80.2439 -0.581234 74.8387 -0.235298 70.1666 1.90572C65.4945 4.04674 61.9384 7.80747 60.2804 12.3606L60.2804 12.3606L1.02463 175.089C-0.633343 179.642 -0.257299 184.614 2.07004 188.912C4.39738 193.21 8.48536 196.482 13.4347 198.007H13.4347L81.7463 219.059C86.6956 220.584 92.1008 220.238 96.7729 218.097C101.445 215.956 105.001 212.195 106.659 207.642L106.659 207.642L147.425 95.6901L148.602 96.0529L156.291 74.9389Z" fill="#3F3D56"/>
<path d="M152.632 26.6927L143.715 23.9448C143.788 24.996 143.579 26.0477 143.106 27.0072C142.634 27.9667 141.912 28.8045 141.004 29.4469C140.097 30.0893 139.032 30.5165 137.902 30.6909C136.773 30.8653 135.615 30.7816 134.529 30.4471L95.3939 18.3868C94.3082 18.0521 93.3286 17.477 92.5414 16.7119C91.7542 15.9469 91.1836 15.0156 90.8799 13.9999C90.5761 12.9843 90.5485 11.9155 90.7996 10.8877C91.0506 9.85992 91.5726 8.90471 92.3194 8.10621L83.991 5.53962C80.2949 4.40059 76.2583 4.65893 72.7693 6.25782C69.2802 7.85672 66.6245 10.6652 65.3863 14.0654L6.21747 176.555C4.97931 179.955 5.26015 183.668 6.99818 186.878C8.73621 190.088 11.7891 192.531 15.4852 193.67H15.4852L84.1258 214.823C85.9559 215.387 87.8889 215.614 89.8143 215.491C91.7397 215.367 93.6199 214.897 95.3475 214.105C97.0751 213.313 98.6163 212.216 99.8831 210.877C101.15 209.537 102.117 207.981 102.73 206.297L161.899 43.808C162.512 42.1244 162.759 40.3462 162.625 38.5749C162.491 36.8036 161.979 35.0739 161.119 33.4846C160.258 31.8953 159.066 30.4775 157.609 29.3122C156.153 28.1468 154.462 27.2567 152.632 26.6927L152.632 26.6927Z" fill="white"/>
<path d="M135.465 81.2061L62.2126 58.6317C61.8531 58.5205 61.5562 58.2826 61.3871 57.9703C61.218 57.658 61.1904 57.2967 61.3105 56.9657L67.3975 40.2494C67.5184 39.9187 67.777 39.6456 68.1165 39.49C68.456 39.3345 68.8487 39.3091 69.2085 39.4196L142.461 61.994C142.821 62.1052 143.118 62.3431 143.287 62.6554C143.456 62.9677 143.483 63.329 143.363 63.66L137.276 80.3762C137.155 80.707 136.897 80.9801 136.557 81.1357C136.218 81.2912 135.825 81.3166 135.465 81.2061ZM69.0267 39.9187C68.8108 39.8524 68.5752 39.8676 68.3715 39.961C68.1678 40.0543 68.0127 40.2182 67.9401 40.4167L61.8531 57.1329C61.781 57.3315 61.7975 57.5483 61.899 57.7357C62.0005 57.9231 62.1786 58.0658 62.3943 58.1325L135.647 80.707C135.863 80.7732 136.099 80.758 136.302 80.6647C136.506 80.5713 136.661 80.4075 136.734 80.209L142.821 63.4928C142.893 63.2942 142.876 63.0774 142.775 62.89C142.673 62.7026 142.495 62.5599 142.28 62.4932L69.0267 39.9187Z" fill="#3F3D56"/>
<path d="M111.381 147.347L38.1283 124.772C37.7688 124.661 37.472 124.423 37.3029 124.111C37.1337 123.799 37.1062 123.437 37.2262 123.106L48.4937 92.1636C48.6146 91.8328 48.8732 91.5597 49.2127 91.4042C49.5522 91.2486 49.9449 91.2232 50.3046 91.3337L123.557 113.908C123.917 114.019 124.214 114.257 124.383 114.57C124.552 114.882 124.58 115.243 124.46 115.574L113.192 146.517C113.071 146.848 112.813 147.121 112.473 147.276C112.134 147.432 111.741 147.457 111.381 147.347ZM50.1229 91.8328C49.907 91.7666 49.6714 91.7818 49.4677 91.8751C49.264 91.9685 49.1088 92.1323 49.0363 92.3308L37.7688 123.274C37.6968 123.472 37.7133 123.689 37.8148 123.876C37.9163 124.064 38.0944 124.206 38.3101 124.273L111.563 146.848C111.779 146.914 112.014 146.899 112.218 146.805C112.422 146.712 112.577 146.548 112.649 146.35L123.917 115.407C123.989 115.208 123.972 114.992 123.871 114.804C123.77 114.617 123.591 114.474 123.376 114.407L50.1229 91.8328Z" fill="#3F3D56"/>
<path d="M125.471 106.996L92.914 96.9629C92.5545 96.8516 92.2576 96.6138 92.0885 96.3015C91.9194 95.9892 91.8918 95.6279 92.0119 95.2969L98.0989 78.5806C98.2198 78.2499 98.4784 77.9768 98.8179 77.8212C99.1574 77.6656 99.5501 77.6403 99.9099 77.7507L132.467 87.7838C132.826 87.8951 133.123 88.1329 133.292 88.4452C133.461 88.7576 133.489 89.1188 133.369 89.4498L127.282 106.166C127.161 106.497 126.902 106.77 126.563 106.925C126.223 107.081 125.831 107.106 125.471 106.996ZM99.7281 78.2499C99.5122 78.1836 99.2766 78.1988 99.0729 78.2922C98.8692 78.3855 98.714 78.5494 98.6415 78.7478L92.5545 95.4641C92.4824 95.6627 92.4989 95.8795 92.6004 96.0669C92.7019 96.2542 92.88 96.397 93.0957 96.4637L125.653 106.497C125.869 106.563 126.104 106.548 126.308 106.455C126.512 106.361 126.667 106.197 126.739 105.999L132.826 89.2826C132.898 89.084 132.882 88.8673 132.78 88.6799C132.679 88.4925 132.501 88.3497 132.285 88.283L99.7281 78.2499Z" fill="#E6E6E6"/>
<path d="M55.9618 175.238L23.405 165.205C23.0455 165.094 22.7486 164.856 22.5795 164.544C22.4103 164.232 22.3828 163.87 22.5028 163.539L33.8612 132.347C33.9821 132.016 34.2407 131.743 34.5802 131.588C34.9196 131.432 35.3124 131.407 35.6721 131.517L68.229 141.55C68.5885 141.662 68.8854 141.899 69.0545 142.212C69.2236 142.524 69.2512 142.885 69.1311 143.216L57.7728 174.409C57.6519 174.739 57.3933 175.012 57.0538 175.168C56.7143 175.324 56.3216 175.349 55.9618 175.238ZM35.4904 132.016C35.2745 131.95 35.0389 131.965 34.8352 132.059C34.6315 132.152 34.4763 132.316 34.4038 132.514L23.0455 163.707C22.9734 163.905 22.9899 164.122 23.0914 164.309C23.1929 164.497 23.371 164.639 23.5867 164.706L56.1436 174.739C56.3595 174.806 56.5951 174.79 56.7988 174.697C57.0025 174.604 57.1577 174.44 57.2302 174.241L68.5885 143.049C68.6606 142.85 68.6441 142.634 68.5426 142.446C68.4411 142.259 68.263 142.116 68.0473 142.049L35.4904 132.016Z" fill="#E6E6E6"/>
<path d="M96.1152 187.613L63.5583 177.58C63.1988 177.468 62.9019 177.23 62.7328 176.918C62.5637 176.606 62.5361 176.245 62.6562 175.914L74.0145 144.721C74.1354 144.391 74.394 144.117 74.7335 143.962C75.073 143.806 75.4657 143.781 75.8255 143.891L108.382 153.924C108.742 154.036 109.039 154.274 109.208 154.586C109.377 154.898 109.405 155.259 109.284 155.59L97.9261 186.783C97.8052 187.113 97.5467 187.387 97.2072 187.542C96.8677 187.698 96.475 187.723 96.1152 187.613ZM75.6437 144.391C75.4278 144.324 75.1922 144.339 74.9885 144.433C74.7848 144.526 74.6297 144.69 74.5571 144.888L63.1988 176.081C63.1267 176.279 63.1432 176.496 63.2447 176.683C63.3462 176.871 63.5243 177.014 63.74 177.08L96.2969 187.113C96.5128 187.18 96.7484 187.165 96.9522 187.071C97.1559 186.978 97.311 186.814 97.3835 186.615L108.742 155.423C108.814 155.225 108.797 155.008 108.696 154.82C108.594 154.633 108.416 154.49 108.201 154.424L75.6437 144.391Z" fill="#E6E6E6"/>
<path d="M71.1486 106.179C71.0278 106.141 70.9 106.125 70.7725 106.132C70.645 106.14 70.5203 106.17 70.4056 106.221C70.2908 106.273 70.1883 106.345 70.1038 106.433C70.0193 106.521 69.9546 106.624 69.9133 106.735C69.872 106.846 69.8549 106.964 69.8631 107.081C69.8713 107.199 69.9045 107.313 69.9609 107.419C70.0173 107.524 70.0958 107.618 70.1918 107.696C70.2879 107.773 70.3996 107.833 70.5206 107.87L70.5316 107.874L113.949 121.254C114.192 121.33 114.459 121.314 114.69 121.21C114.922 121.105 115.098 120.921 115.181 120.696C115.265 120.472 115.247 120.227 115.134 120.014C115.02 119.801 114.819 119.639 114.576 119.562L114.566 119.559L71.1486 106.179Z" fill="#E6E6E6"/>
<path d="M69.2974 111.263C69.1766 111.225 69.0488 111.209 68.9213 111.216C68.7938 111.223 68.6691 111.253 68.5544 111.305C68.4397 111.357 68.3371 111.429 68.2527 111.517C68.1682 111.605 68.1035 111.708 68.0622 111.819C68.0209 111.93 68.0038 112.048 68.012 112.165C68.0202 112.282 68.0534 112.397 68.1098 112.502C68.1662 112.608 68.2446 112.702 68.3406 112.779C68.4366 112.857 68.5483 112.916 68.6693 112.954L68.6803 112.957L87.3628 118.715C87.6066 118.788 87.8721 118.77 88.1015 118.664C88.3308 118.558 88.5053 118.373 88.5868 118.15C88.6683 117.926 88.6502 117.681 88.5365 117.47C88.4228 117.258 88.2226 117.096 87.9798 117.02L69.2974 111.263Z" fill="#E6E6E6"/>
<path d="M49.3376 114.151C48.6371 113.935 47.9286 114.139 47.7585 114.606C47.5884 115.073 48.0201 115.629 48.7206 115.845L108.623 134.305C109.323 134.521 110.032 134.317 110.202 133.85C110.372 133.382 109.94 132.827 109.24 132.611L49.3376 114.151Z" fill="#E6E6E6"/>
<path d="M47.4866 119.234C46.786 119.018 46.0775 119.223 45.9074 119.69C45.7373 120.157 46.169 120.713 46.8696 120.929L106.772 139.389C107.472 139.605 108.181 139.4 108.351 138.933C108.521 138.466 108.089 137.91 107.389 137.694L47.4866 119.234Z" fill="#E6E6E6"/>
<path d="M91.3223 52.4357C91.0783 52.3604 90.8118 52.3772 90.5813 52.4825C90.3508 52.5878 90.1752 52.7729 90.0929 52.9973C90.0107 53.2216 90.0286 53.4668 90.1427 53.679C90.2568 53.8912 90.4577 54.053 90.7014 54.129L90.7053 54.1302L134.122 67.5101C134.366 67.5837 134.632 67.5656 134.861 67.4598C135.09 67.3539 135.265 67.1688 135.346 66.945C135.428 66.7212 135.41 66.4767 135.296 66.2651C135.182 66.0535 134.982 65.8919 134.739 65.8156L91.3223 52.4357Z" fill="#E6E6E6"/>
<path d="M89.4711 57.5192C89.3502 57.4815 89.2223 57.466 89.0949 57.4738C88.9676 57.4816 88.8431 57.5124 88.7286 57.5645C88.6142 57.6166 88.5121 57.6889 88.428 57.7773C88.344 57.8657 88.2797 57.9685 88.2389 58.0798C88.1981 58.1911 88.1816 58.3087 88.1902 58.4259C88.1989 58.5431 88.2325 58.6575 88.2893 58.7627C88.3461 58.8679 88.4249 58.9618 88.5211 59.039C88.6174 59.1161 88.7292 59.1751 88.8502 59.2125L88.854 59.2136L107.536 64.971C107.78 65.0447 108.046 65.0266 108.275 64.9207C108.504 64.8148 108.679 64.6298 108.76 64.4059C108.842 64.1821 108.824 63.9377 108.71 63.7261C108.596 63.5145 108.396 63.3529 108.153 63.2766L89.4711 57.5192Z" fill="#E6E6E6"/>
<path d="M85.2877 94.616L54.7466 85.2041L66.1043 75.9666C66.3078 75.801 66.5552 75.6876 66.8215 75.6379C67.0877 75.5881 67.3635 75.6037 67.6212 75.6831C67.8788 75.7625 68.1092 75.9029 68.2892 76.0902C68.4692 76.2775 68.5924 76.505 68.6464 76.75L69.9353 82.5885L78.185 75.8788C78.4399 75.6715 78.7496 75.5296 79.083 75.4673C79.4163 75.405 79.7617 75.4246 80.0842 75.524C80.4068 75.6234 80.6953 75.7991 80.9206 76.0336C81.1459 76.2681 81.3002 76.553 81.3679 76.8597L85.2877 94.616ZM55.8681 84.9945L84.5297 93.8272L80.807 76.9644C80.7593 76.7483 80.6506 76.5475 80.4918 76.3823C80.333 76.2171 80.1298 76.0932 79.9025 76.0232C79.6752 75.9531 79.4318 75.9393 79.1969 75.9832C78.962 76.0271 78.7438 76.1272 78.5642 76.2733L69.5718 83.5868L68.0855 76.8547C68.0515 76.7003 67.9738 76.5569 67.8604 76.4389C67.747 76.3208 67.6018 76.2323 67.4394 76.1823C67.2771 76.1322 67.1032 76.1224 66.9354 76.1538C66.7676 76.1852 66.6117 76.2566 66.4834 76.361L55.8681 84.9945Z" fill="#E6E6E6"/>
<path d="M124.356 106.656L93.8147 97.2438L105.172 88.0062C105.376 87.8407 105.623 87.7273 105.89 87.6775C106.156 87.6278 106.432 87.6434 106.689 87.7228C106.947 87.8022 107.177 87.9426 107.357 88.1299C107.537 88.3171 107.66 88.5447 107.715 88.7897L109.003 94.6281L117.253 87.9185C117.508 87.7112 117.818 87.5693 118.151 87.507C118.484 87.4447 118.83 87.4642 119.152 87.5636C119.475 87.663 119.763 87.8388 119.989 88.0733C120.214 88.3077 120.368 88.5927 120.436 88.8993L124.356 106.656ZM94.9362 97.0342L123.598 105.867L119.875 89.0041C119.827 88.788 119.719 88.5872 119.56 88.422C119.401 88.2567 119.198 88.1329 118.971 88.0628C118.743 87.9928 118.5 87.979 118.265 88.0229C118.03 88.0668 117.812 88.1668 117.632 88.3129L108.64 95.6265L107.154 88.8944C107.12 88.74 107.042 88.5966 106.929 88.4785C106.815 88.3605 106.67 88.272 106.508 88.222C106.345 88.1719 106.171 88.1621 106.004 88.1934C105.836 88.2248 105.68 88.2963 105.552 88.4007L94.9362 97.0342Z" fill="#E6E6E6"/>
<path d="M85.3176 94.6219L52.7607 84.5887C52.4012 84.4775 52.1043 84.2397 51.9352 83.9273C51.7661 83.615 51.7385 83.2537 51.8586 82.9228L57.9456 66.2065C58.0665 65.8758 58.3251 65.6027 58.6646 65.4471C59.0041 65.2915 59.3968 65.2662 59.7566 65.3766L92.3135 75.4097C92.673 75.521 92.9698 75.7588 93.139 76.0711C93.3081 76.3835 93.3356 76.7447 93.2156 77.0757L87.1285 93.792C87.0076 94.1227 86.7491 94.3958 86.4096 94.5514C86.0701 94.707 85.6774 94.7323 85.3176 94.6219ZM59.5748 65.8758C59.3589 65.8095 59.1233 65.8247 58.9196 65.9181C58.7159 66.0114 58.5608 66.1753 58.4882 66.3737L52.4012 83.09C52.3291 83.2886 52.3457 83.5053 52.4471 83.6927C52.5486 83.8801 52.7267 84.0228 52.9425 84.0896L85.4993 94.1227C85.7152 94.189 85.9509 94.1738 86.1546 94.0804C86.3583 93.9871 86.5134 93.8232 86.5859 93.6247L92.673 76.9085C92.745 76.7099 92.7285 76.4931 92.627 76.3057C92.5256 76.1183 92.3474 75.9756 92.1317 75.9089L59.5748 65.8758Z" fill="#E6E6E6"/>
<path d="M40.267 140.087C40.0233 140.012 39.7568 140.028 39.526 140.132C39.2953 140.237 39.119 140.421 39.036 140.646C38.9531 140.87 38.9701 141.115 39.0834 141.327C39.1967 141.54 39.3971 141.702 39.6404 141.779L39.65 141.782L58.3324 147.539C58.4536 147.577 58.5816 147.593 58.7093 147.585C58.837 147.577 58.9618 147.547 59.0765 147.494C59.1912 147.442 59.2935 147.37 59.3777 147.281C59.4618 147.192 59.526 147.089 59.5666 146.977C59.6073 146.866 59.6236 146.748 59.6145 146.63C59.6055 146.513 59.5713 146.398 59.5139 146.293C59.4566 146.188 59.3772 146.094 59.2803 146.017C59.1834 145.94 59.071 145.882 58.9494 145.845L40.267 140.087Z" fill="#E6E6E6"/>
<path d="M38.4495 145.079C38.2056 145.005 37.9397 145.023 37.7101 145.129C37.4804 145.235 37.3057 145.42 37.2241 145.644C37.1425 145.868 37.1607 146.113 37.2747 146.324C37.3887 146.536 37.5893 146.698 37.8324 146.774L56.5149 152.531C56.7588 152.605 57.0246 152.587 57.2543 152.481C57.4839 152.376 57.6586 152.19 57.7402 151.966C57.8218 151.742 57.8036 151.498 57.6896 151.286C57.5756 151.074 57.3751 150.913 57.1319 150.837L38.4495 145.079Z" fill="#E6E6E6"/>
<path d="M42.0257 163.79C40.8792 163.436 39.8723 162.778 39.1323 161.898C38.3924 161.018 37.9527 159.957 37.8687 158.847C37.7848 157.737 38.0605 156.63 38.6609 155.664C39.2613 154.698 40.1594 153.918 41.2417 153.422C42.324 152.926 43.5419 152.737 44.7414 152.877C45.9408 153.018 47.068 153.483 47.9803 154.213C48.8925 154.943 49.549 155.906 49.8666 156.979C50.1843 158.052 50.1488 159.188 49.7647 160.243C49.2481 161.656 48.1432 162.824 46.6924 163.488C45.2415 164.153 43.5633 164.262 42.0257 163.79ZM45.7278 153.623C44.6886 153.302 43.5695 153.273 42.512 153.538C41.4545 153.803 40.5061 154.35 39.7868 155.111C39.0675 155.871 38.6095 156.811 38.4708 157.811C38.3321 158.812 38.5189 159.827 39.0076 160.73C39.4963 161.632 40.2649 162.381 41.2162 162.882C42.1676 163.382 43.2589 163.612 44.3523 163.542C45.4456 163.472 46.4919 163.105 47.3587 162.488C48.2255 161.871 48.874 161.032 49.2221 160.076C49.6872 158.794 49.5804 157.394 48.9254 156.185C48.2703 154.975 47.1204 154.054 45.7279 153.623H45.7278Z" fill="#E6E6E6"/>
<path d="M91.5202 179.042C91.641 179.08 91.7687 179.096 91.8962 179.089C92.0236 179.081 92.1482 179.051 92.2629 178.999C92.3775 178.948 92.48 178.875 92.5643 178.787C92.6487 178.699 92.7133 178.596 92.7545 178.485C92.7957 178.374 92.8126 178.256 92.8044 178.139C92.7961 178.022 92.7628 177.907 92.7064 177.802C92.6499 177.697 92.5714 177.603 92.4754 177.525C92.3794 177.448 92.2677 177.388 92.1467 177.351L92.1372 177.348L73.4548 171.59C73.2111 171.515 72.9446 171.531 72.7139 171.635C72.4832 171.74 72.307 171.925 72.224 172.149C72.1411 172.373 72.1581 172.618 72.2713 172.83C72.3846 173.043 72.5849 173.205 72.8282 173.282L72.8377 173.285L91.5202 179.042Z" fill="#E6E6E6"/>
<path d="M93.338 174.051C93.4592 174.089 93.5873 174.104 93.715 174.096C93.8427 174.089 93.9674 174.058 94.0821 174.006C94.1968 173.953 94.2992 173.881 94.3833 173.792C94.4674 173.703 94.5316 173.6 94.5723 173.489C94.6129 173.377 94.6292 173.259 94.6201 173.142C94.6111 173.024 94.5769 172.91 94.5195 172.804C94.4622 172.699 94.3828 172.605 94.2859 172.528C94.189 172.451 94.0766 172.393 93.9551 172.356L75.2726 166.599C75.0289 166.523 74.7624 166.539 74.5317 166.644C74.3009 166.748 74.1246 166.933 74.0417 167.157C73.9587 167.381 73.9757 167.626 74.089 167.839C74.2023 168.051 74.4027 168.213 74.6461 168.29L74.6556 168.293L93.338 174.051Z" fill="#E6E6E6"/>
<path d="M89.7617 155.34C90.9082 155.694 91.9151 156.352 92.655 157.232C93.395 158.111 93.8347 159.173 93.9186 160.283C94.0026 161.393 93.7269 162.5 93.1265 163.466C92.5261 164.431 91.628 165.212 90.5457 165.708C89.4634 166.204 88.2455 166.393 87.046 166.252C85.8466 166.112 84.7195 165.647 83.8072 164.917C82.8949 164.187 82.2384 163.224 81.9208 162.151C81.6031 161.077 81.6386 159.942 82.0227 158.887C82.5393 157.473 83.6442 156.306 85.095 155.641C86.5459 154.977 88.2241 154.868 89.7617 155.34ZM86.0595 165.507C87.0988 165.827 88.2179 165.857 89.2754 165.592C90.3329 165.327 91.2812 164.78 92.0006 164.019C92.7199 163.258 93.1779 162.319 93.3166 161.318C93.4553 160.318 93.2685 159.303 92.7798 158.4C92.2911 157.498 91.5225 156.749 90.5712 156.248C89.6198 155.748 88.5285 155.518 87.4351 155.588C86.3418 155.658 85.2955 156.024 84.4287 156.641C83.5619 157.258 82.9134 158.098 82.5653 159.054C82.1002 160.336 82.207 161.735 82.862 162.945C83.5171 164.155 84.667 165.076 86.0595 165.507Z" fill="#E6E6E6"/>
</g>
<path d="M76.1881 46.6177L69.5933 49.9113L73.256 55.9362L74.744 55.1819L71.9886 50.5809L77.0312 48.0247L76.1881 46.6177Z" fill="#F9A826"/>
<path d="M80.3903 47.7368L84.0528 53.7619L77.4581 57.0553L76.6382 55.6864L81.6394 53.1511L78.8606 48.5119L80.3903 47.7368Z" fill="#F9A826"/>
<path d="M57.2528 100.589L50.658 103.883L54.3207 109.908L55.8087 109.153L53.0533 104.552L58.0959 101.996L57.2528 100.589Z" fill="#F9A826"/>
<path d="M61.4552 101.708L65.1178 107.733L58.5231 111.027L57.7031 109.658L62.7044 107.122L59.9255 102.483L61.4552 101.708Z" fill="#F9A826"/>
</g>
<defs>
<filter id="filter0_d" x="-3.99463" y="0.00634766" width="174.929" height="227.99" filterUnits="userSpaceOnUse" color-interpolation-filters="sRGB">
<feFlood flood-opacity="0" result="BackgroundImageFix"/>
<feColorMatrix in="SourceAlpha" type="matrix" values="0 0 0 0 0 0 0 0 0 0 0 0 0 0 0 0 0 0 127 0"/>
<feOffset dy="4"/>
<feGaussianBlur stdDeviation="2"/>
<feColorMatrix type="matrix" values="0 0 0 0 0 0 0 0 0 0 0 0 0 0 0 0 0 0 0.25 0"/>
<feBlend mode="normal" in2="BackgroundImageFix" result="effect1_dropShadow"/>
<feBlend mode="normal" in="SourceGraphic" in2="effect1_dropShadow" result="shape"/>
</filter>
<clipPath id="clip0">
<rect width="220" height="220" fill="white"/>
</clipPath>
</defs>
</svg>
