<svg width="220" height="220" viewBox="0 0 220 220" fill="none" xmlns="http://www.w3.org/2000/svg">
<path d="M169.702 61.7254C169.313 61.3198 164.326 54.7616 163.484 53.6798C162.578 52.5981 162.189 52.8009 161.606 52.8685C161.023 52.9361 154.741 54.0855 154.028 54.1531C153.316 54.2883 152.862 54.5588 153.316 55.2349C153.704 55.8433 157.85 61.9282 158.756 63.348L142.241 67.4723L129.158 44.5525C128.64 43.7412 128.51 43.4707 127.344 43.5383C126.178 43.6059 117.046 44.4173 116.399 44.4173C115.751 44.4849 115.038 44.7553 115.686 46.3779C116.334 48.0006 126.697 71.2584 126.956 71.9345C127.215 72.6106 127.992 73.6924 129.741 73.2867C131.554 72.8134 137.772 71.1232 141.204 70.1766C143.018 73.5571 146.645 80.4534 147.357 81.4675C148.264 82.8197 148.912 82.5493 150.272 82.1436C151.373 81.8055 167.241 75.8559 167.953 75.5178C168.666 75.1798 169.119 74.9769 168.601 74.2332C168.212 73.6924 164.067 67.8103 161.865 64.7678C163.355 64.3622 168.73 62.8748 169.313 62.6719C169.961 62.4691 170.091 62.131 169.702 61.7254V61.7254ZM139.715 68.1484C139.52 68.216 130.259 70.5147 129.805 70.6499C129.287 70.7851 129.287 70.7175 129.287 70.5147C129.158 70.3119 118.277 46.7836 118.082 46.5132C117.953 46.2427 117.953 45.9723 118.082 45.9723C118.212 45.9723 126.826 45.161 127.085 45.161C127.409 45.161 127.344 45.2286 127.474 45.4314C127.474 45.4314 139.585 67.2694 139.779 67.6075C140.039 67.9455 139.909 68.0807 139.715 68.1484V68.1484ZM165.751 73.2191C165.881 73.4895 166.075 73.6248 165.557 73.76C165.103 73.9628 149.948 79.304 149.624 79.4392C149.3 79.5744 149.106 79.642 148.717 79.0336C148.329 78.4251 143.406 69.5682 143.406 69.5682L159.533 65.1735C159.922 65.0383 160.052 64.9707 160.311 65.3763C160.57 65.8496 165.622 73.0163 165.751 73.2191V73.2191ZM166.787 61.3198C166.399 61.3874 160.505 62.9424 160.505 62.9424L155.647 56.0462C155.518 55.8434 155.388 55.6405 155.712 55.5729C156.036 55.5053 161.541 54.4912 161.8 54.4235C162.059 54.3559 162.254 54.2883 162.578 54.7616C162.901 55.1673 167.046 60.7113 167.241 60.9141C167.435 61.1169 167.176 61.2521 166.787 61.3198V61.3198Z" fill="#FB503B"/>
<path d="M188.666 82.3321C177.216 35.3307 137.651 1.40226 91.2112 0.0414179C66.6597 -0.678023 40.8248 7.82199 22.015 37.5666C-11.6095 90.7384 24.0813 127.482 48.964 144.941C60.9853 153.394 71.8172 163.557 81.146 175.136C97.9534 195.956 130.287 221.828 168.795 181.291C196.706 151.909 196.293 113.64 188.666 82.3321Z" fill="#F2F2F2"/>
<path d="M219.745 187.002C219.745 198.539 171.516 220 110.765 220C50.0135 220 0 199.87 0 188.332C0 176.795 50.0135 178.22 110.765 178.22C171.516 178.22 219.745 175.465 219.745 187.002Z" fill="#3F3D56"/>
<path opacity="0.1" d="M219.745 187.002C219.745 198.539 171.516 220 110.765 220C50.0135 220 0 199.87 0 188.332C0 176.795 50.0135 178.22 110.765 178.22C171.516 178.22 219.745 175.465 219.745 187.002Z" fill="black"/>
<path d="M110 209.089C170.751 209.089 220 199.737 220 188.199C220 176.662 170.751 167.309 110 167.309C49.2487 167.309 0 176.662 0 188.199C0 199.737 49.2487 209.089 110 209.089Z" fill="#3F3D56"/>
<path d="M151.644 117.153V173.022L160.596 188.252L161.278 189.411H196.601L197.314 117.153H151.644Z" fill="#2F2E41"/>
<path opacity="0.1" d="M151.644 117.153V173.022L160.596 188.252L161.146 117.153H151.644Z" fill="black"/>
<path d="M66.3692 115.663V171.532L57.4171 186.762L56.7356 187.921H21.4123L20.6987 115.663H66.3692Z" fill="#2F2E41"/>
<path opacity="0.1" d="M66.369 115.663V171.532L57.4168 186.762L56.8672 115.663H66.369Z" fill="black"/>
<path d="M208.019 114.546V117.898H16.0603V113.056L33.9002 103.372H192.319L208.019 114.546Z" fill="#2F2E41"/>
<path opacity="0.1" d="M208.019 114.546V117.898H16.0603V113.056L208.019 114.546Z" fill="black"/>
<path opacity="0.1" d="M43.5337 131.307H34.9705L31.4026 128.7H47.4585L43.5337 131.307Z" fill="black"/>
<path opacity="0.1" d="M43.5337 142.108H34.9705L31.4026 139.501H47.4585L43.5337 142.108Z" fill="black"/>
<path opacity="0.1" d="M43.5337 157.379H34.9705L31.4026 154.772H47.4585L43.5337 157.379Z" fill="black"/>
<path opacity="0.1" d="M43.5337 172.65H34.9705L31.4026 170.043H47.4585L43.5337 172.65Z" fill="black"/>
<path opacity="0.1" d="M174.48 132.797H183.043L186.611 130.189H170.555L174.48 132.797Z" fill="black"/>
<path opacity="0.1" d="M174.48 143.598H183.043L186.611 140.991H170.555L174.48 143.598Z" fill="black"/>
<path opacity="0.1" d="M174.48 158.869H183.043L186.611 156.262H170.555L174.48 158.869Z" fill="black"/>
<path opacity="0.1" d="M174.48 174.14H183.043L186.611 171.532H170.555L174.48 174.14Z" fill="black"/>
<path d="M135.751 94.0517L134.561 101.984C134.561 101.984 128.702 105.233 132.822 105.329C136.941 105.424 156.35 105.329 156.35 105.329C156.35 105.329 160.104 105.329 154.153 101.888L152.963 93.5738L135.751 94.0517Z" fill="#3F3D56"/>
<path opacity="0.1" d="M131.993 105.243C132.793 104.567 133.653 103.973 134.561 103.468L135.751 95.5359L152.963 95.5528L154.153 103.373C155.131 103.899 156.053 104.533 156.903 105.262C157.667 105.08 158.503 104.403 154.153 101.888L152.963 93.5738L135.751 94.0517L134.561 101.984C134.561 101.984 129.638 104.715 131.993 105.243Z" fill="black"/>
<path d="M180.311 38.7653H108.221C106.715 38.7653 105.494 40.0395 105.494 41.6113V92.3047C105.494 93.8765 106.715 95.1507 108.221 95.1507H180.311C181.817 95.1507 183.037 93.8765 183.037 92.3047V41.6113C183.037 40.0395 181.817 38.7653 180.311 38.7653Z" fill="#3F3D56"/>
<path d="M180.428 41.7757H108.103V84.017H180.428V41.7757Z" fill="#F2F2F2"/>
<path d="M144.265 40.9156C144.518 40.9156 144.723 40.7016 144.723 40.4377C144.723 40.1738 144.518 39.9599 144.265 39.9599C144.013 39.9599 143.808 40.1738 143.808 40.4377C143.808 40.7016 144.013 40.9156 144.265 40.9156Z" fill="#F2F2F2"/>
<path d="M183.037 87.3618V92.3046C183.037 92.6784 182.967 93.0485 182.83 93.3938C182.693 93.7392 182.492 94.0529 182.239 94.3172C181.986 94.5815 181.685 94.7911 181.354 94.9341C181.023 95.0771 180.669 95.1507 180.311 95.1507H108.22C107.862 95.1507 107.508 95.0771 107.177 94.9341C106.846 94.7911 106.546 94.5815 106.293 94.3172C106.039 94.0529 105.839 93.7392 105.702 93.3938C105.565 93.0485 105.494 92.6784 105.494 92.3046V87.3618H183.037Z" fill="#3F3D56"/>
<path d="M144.266 93.096C145.226 93.096 146.005 92.283 146.005 91.2802C146.005 90.2773 145.226 89.4644 144.266 89.4644C143.305 89.4644 142.526 90.2773 142.526 91.2802C142.526 92.283 143.305 93.096 144.266 93.096Z" fill="#F2F2F2"/>
<path d="M141.555 110.489V111.445H92.3008V110.681L92.3686 110.489L93.5825 107.049H140.548L141.555 110.489Z" fill="#3F3D56"/>
<path d="M160.509 109.554C160.42 109.954 160.081 110.377 159.316 110.776C156.569 112.21 150.985 110.394 150.985 110.394C150.985 110.394 146.682 109.629 146.682 107.622C146.802 107.536 146.928 107.458 147.059 107.388C148.214 106.751 152.042 105.177 158.831 107.455C159.331 107.619 159.778 107.924 160.121 108.338C160.273 108.494 160.388 108.686 160.455 108.897C160.523 109.108 160.541 109.333 160.509 109.554Z" fill="#3F3D56"/>
<path opacity="0.1" d="M160.51 109.554C157.148 110.898 154.151 110.999 151.076 108.769C149.525 107.645 148.116 107.367 147.059 107.388C148.214 106.751 152.042 105.177 158.831 107.455C159.331 107.619 159.778 107.924 160.121 108.338C160.274 108.494 160.388 108.686 160.456 108.897C160.523 109.108 160.542 109.333 160.51 109.554Z" fill="black"/>
<path d="M156.295 108.769C156.952 108.769 157.485 108.598 157.485 108.387C157.485 108.176 156.952 108.005 156.295 108.005C155.637 108.005 155.104 108.176 155.104 108.387C155.104 108.598 155.637 108.769 156.295 108.769Z" fill="#F2F2F2"/>
<path opacity="0.1" d="M141.555 110.489V111.445H92.3008V110.681L92.3686 110.489H141.555Z" fill="black"/>
<path d="M100.603 51.6636C105.988 51.6636 110.353 47.1068 110.353 41.4857C110.353 35.8645 105.988 31.3077 100.603 31.3077C95.2183 31.3077 90.853 35.8645 90.853 41.4857C90.853 47.1068 95.2183 51.6636 100.603 51.6636Z" fill="#FFB9B9"/>
<path d="M93.4189 46.5746V62.6451H109.327C109.327 62.6451 107.274 49.2531 108.301 45.2354L93.4189 46.5746Z" fill="#FFB9B9"/>
<path d="M124.978 68.2698C124.978 68.2698 109.84 60.5024 109.84 59.9667C109.84 59.431 108.301 55.9491 107.274 55.9491C106.248 55.9491 97.5242 53.0029 92.6492 57.2883L92.1361 60.7702L73.4058 73.6266L78.5374 93.179C78.5374 93.179 81.8729 96.9288 80.8466 99.6072C79.8203 102.286 81.6163 115.946 81.6163 115.946L121.899 114.606V96.3931C121.899 96.3931 123.182 92.1077 123.952 90.7685C124.722 89.4293 123.952 85.4116 123.952 85.4116L130.11 77.3764C130.11 77.3764 129.34 69.8768 124.978 68.2698Z" fill="#D0CDE1"/>
<path opacity="0.1" d="M74.0473 80.1887L75.2019 73.6266C75.2019 73.6266 68.5309 103.893 69.3006 107.375C70.0703 110.857 75.7151 116.213 76.4848 116.481C77.2546 116.749 84.4388 93.4468 84.4388 93.4468L74.0473 80.1887Z" fill="black"/>
<path d="M77.7679 72.8231L73.406 73.6266C73.406 73.6266 66.735 103.893 67.5047 107.375C68.2744 110.857 73.9192 116.213 74.6889 116.481C75.4587 116.749 82.6429 93.4469 82.6429 93.4469L77.7679 72.8231Z" fill="#D0CDE1"/>
<path opacity="0.1" d="M126.389 81.7958L128.57 77.3764C128.57 77.3764 131.649 107.642 129.597 110.589C127.544 113.535 119.424 114.637 119.424 114.637L119.333 92.6434L126.389 81.7958Z" fill="black"/>
<path d="M126.774 73.8944L130.11 77.3764C130.11 77.3764 133.189 107.642 131.136 110.589C129.084 113.535 120.964 114.637 120.964 114.637L120.873 92.6434L126.774 73.8944Z" fill="#D0CDE1"/>
<path d="M76.998 119.963C76.998 119.963 69.5571 117.017 68.2743 122.642C66.9914 128.266 71.3532 153.443 71.3532 153.443C71.3532 153.443 74.1756 172.46 75.9716 172.996C77.7677 173.531 85.7217 173.799 87.0046 171.389C88.2875 168.978 83.1559 144.337 83.1559 144.337L112.919 143.801C112.919 143.801 111.123 165.228 110.097 167.103C109.07 168.978 109.07 175.406 110.097 175.406C111.123 175.406 122.413 174.871 123.182 173.264C123.952 171.656 128.314 135.498 128.314 135.498C128.314 135.498 131.906 122.909 127.801 123.713C123.695 124.516 76.998 119.963 76.998 119.963Z" fill="#3F3D56"/>
<path d="M120.873 172.192C120.873 172.192 123.439 170.317 124.722 172.192C126.004 174.067 126.518 176.21 120.873 179.424C115.228 182.638 110.866 181.834 110.866 181.299V173.531L120.873 172.192Z" fill="#2F2E41"/>
<path d="M76.4846 171.389C76.4846 171.389 73.9188 169.514 72.6359 171.389C71.353 173.264 70.8398 175.406 76.4846 178.62C82.1294 181.834 86.4912 181.031 86.4912 180.495V172.728L76.4846 171.389Z" fill="#2F2E41"/>
<path d="M100.667 28.6523C99.6954 28.617 98.7259 28.7613 97.8028 29.0783C97.087 29.3787 96.4033 29.7563 95.7627 30.2051L91.4582 32.9993C91.0928 33.1644 90.7824 33.4388 90.5661 33.7878C90.3499 34.1369 90.2375 34.545 90.2432 34.9606L89.7053 39.1657C89.5696 40.2269 89.4444 41.3617 89.8995 42.3212C90.2793 43.122 91.0037 43.67 91.5993 44.3118C92.5525 45.3432 93.194 46.6445 93.4441 48.0536C93.752 49.8093 93.5549 51.9236 94.8858 53.044C95.6065 53.6507 96.5888 53.7654 97.513 53.8218C100.04 53.9759 102.576 53.874 105.084 53.5176C105.483 53.4865 105.872 53.3727 106.228 53.183C106.681 52.9036 106.966 52.4105 107.232 51.9372C108.193 50.2289 109.184 48.4115 109.174 46.4303C109.168 45.4502 108.928 44.3975 109.379 43.5377C109.617 43.1723 109.876 42.8217 110.153 42.4879C110.712 41.6691 110.82 40.6171 110.911 39.6166C111.202 36.4209 110.898 33.989 108.642 31.7379C106.536 29.6366 103.539 28.6716 100.667 28.6523Z" fill="#2F2E41"/>
<path d="M76.7165 151.606L68.1533 197.046H72.4348L80.6413 152.351L76.7165 151.606Z" fill="#2F2E41"/>
<path d="M104.19 155.331L109.542 207.475H113.11L109.899 153.841L104.19 155.331Z" fill="#2F2E41"/>
<path d="M118.818 153.841L126.311 188.48H129.879L122.743 153.096L118.818 153.841Z" fill="#2F2E41"/>
<path d="M90.2745 153.841L89.2041 181.403H92.0585L94.1994 153.841H90.2745Z" fill="#2F2E41"/>
<path d="M70.6505 146.764C70.6505 146.764 64.9417 106.911 80.9977 105.793C97.0537 104.676 119.889 105.793 119.889 105.793C119.889 105.793 133.09 104.676 129.166 146.764C129.166 146.764 132.734 159.055 100.622 157.938C68.5097 156.82 70.6505 146.764 70.6505 146.764Z" fill="#F9A826"/>
<path d="M216.941 163.039C216.941 169.988 212.983 172.415 208.101 172.415C203.219 172.415 199.261 169.988 199.261 163.039C199.261 156.089 208.101 147.248 208.101 147.248C208.101 147.248 216.941 156.089 216.941 163.039Z" fill="#F9A826"/>
<path d="M207.87 165.535L211.637 158.34L207.884 164.623L207.925 162.008L210.521 156.802L207.935 161.316L208.008 156.612L210.789 152.468L208.02 155.873L208.066 147.248L207.791 158.176L204.975 153.677L207.757 159.098L207.493 164.352L207.485 164.212L204.226 159.459L207.475 164.705L207.442 165.362L207.437 165.372L207.439 165.426L206.771 172.436H207.664L207.771 171.869L211.012 166.636L207.779 171.352L207.87 165.535Z" fill="#3F3D56"/>
<path d="M213.747 187.49H203.208L200.484 171.421H215.878L213.747 187.49Z" fill="#2F2E41"/>
<path d="M58.8876 78.8496H36.9641V105.681H58.8876V78.8496Z" fill="#3F3D56"/>
<path d="M55.4856 83.0131H40.366V101.518H55.4856V83.0131Z" fill="#F2F2F2"/>
<path d="M49.4411 86.9431L47.9057 89.7191L46.3702 86.9431H41.2576L47.9057 98.9636L54.5538 86.9431H49.4411Z" fill="#4DBA87"/>
<path d="M49.4413 86.9431L47.9059 89.7191L46.3704 86.9431H43.917L47.9059 94.1551L51.8947 86.9431H49.4413Z" fill="#435466"/>
</svg>
