<svg width="220" height="220" viewBox="0 0 220 220" fill="none" xmlns="http://www.w3.org/2000/svg">
<g id="slika 2">
<g id="covjek">
<path id="Path 4" d="M183.025 207.731L182.645 213.833L174.9 210.782L178.073 206.206L183.025 207.731Z" fill="#FEB8B8"/>
<path id="Path 5" d="M211.213 205.749L210.831 211.697L206.514 212.46L203.975 209.562L206.895 203.918L211.213 205.749Z" fill="#FEB8B8"/>
<path id="Path 6" d="M214.387 129.792C214.387 129.792 217.815 134.672 213.498 142.146C209.181 149.62 203.975 156.941 203.975 156.941L194.324 178.905C194.324 178.905 189.373 200.411 188.23 201.02C187.087 201.63 186.452 199.19 187.087 201.783C187.722 204.376 187.341 204.223 186.833 204.377C186.325 204.53 184.929 204.224 185.436 205.292C185.944 206.36 186.325 206.36 185.31 206.36C184.294 206.36 183.913 205.597 183.913 206.665C183.913 207.732 183.024 210.173 183.024 210.173C183.024 210.173 176.802 208.037 176.549 207.122C176.295 206.207 178.199 205.749 177.818 204.834C177.437 203.919 177.31 203.919 177.31 202.547C177.31 201.174 178.072 200.869 178.072 200.869C178.072 200.869 178.707 200.564 178.453 199.954C178.199 199.343 177.184 199.649 178.453 198.886C179.723 198.123 184.929 174.787 184.929 174.787C184.929 174.787 184.929 163.193 186.58 159.381C188.23 155.569 186.961 128.419 190.898 128.114C194.835 127.809 214.387 129.792 214.387 129.792Z" fill="#2F2E41"/>
<path id="Path 7" d="M213.117 138.485L212.355 162.127C212.355 162.127 216.165 185.005 214.895 192.021C213.625 199.037 214.514 198.122 213.752 199.342C212.99 200.563 212.355 199.952 212.99 201.02C213.625 202.088 214.005 202.393 212.99 203.614C211.976 204.835 211.467 207.732 211.467 207.732L204.991 206.97C204.991 206.97 206.642 203.462 206.006 202.699C205.37 201.936 203.72 203.156 204.991 201.48C206.262 199.804 207.023 200.565 206.261 199.802C205.499 199.04 204.356 199.345 205.372 198.125C206.387 196.904 207.531 196.906 206.515 196.447C205.498 195.988 204.356 196.447 204.864 195.532C205.373 194.616 206.007 193.549 206.007 193.549L204.483 179.669C204.483 179.669 202.706 175.093 203.214 173.111C203.721 171.128 201.054 154.808 201.054 154.808L213.117 138.485Z" fill="#2F2E41"/>
<path id="Path 8" d="M210.324 208.799C210.324 208.799 211.594 207.274 211.975 208.189C212.356 209.104 215.149 217.34 213.499 217.95C211.849 218.56 209.436 219.169 208.166 218.713C206.896 218.257 204.23 216.119 201.056 216.119C197.882 216.119 195.215 214.441 195.215 213.831C195.215 213.221 194.707 209.561 197.12 209.561C199.532 209.561 203.976 206.205 203.976 206.205C203.976 206.205 204.99 203.765 205.5 203.918C206.009 204.07 205.626 208.951 205.626 208.951C205.626 208.951 208.546 212.307 210.324 208.799Z" fill="#2F2E41"/>
<path id="Path 9" d="M182.137 210.782C182.137 210.782 183.279 207.426 184.422 208.188C185.565 208.95 184.803 218.406 184.803 218.406C184.803 218.406 183.788 220.389 180.867 219.931C177.945 219.474 170.201 218.406 168.424 218.864C166.646 219.321 161.821 216.728 163.091 213.22C163.091 213.22 163.726 211.237 166.773 211.39C169.821 211.542 175.407 207.119 175.407 207.119C175.407 207.119 176.296 204.069 176.55 204.374C176.804 204.679 177.058 210.017 177.058 210.017C177.058 210.017 180.359 212.612 182.137 210.782Z" fill="#2F2E41"/>
<path id="Ellipse 2" d="M198.77 70.155C202.837 70.155 206.134 66.1943 206.134 61.3085C206.134 56.4227 202.837 52.462 198.77 52.462C194.703 52.462 191.406 56.4227 191.406 61.3085C191.406 66.1943 194.703 70.155 198.77 70.155Z" fill="#FEB8B8"/>
<path id="Path 10" d="M204.483 61.9185C204.483 61.9185 208.419 71.375 209.816 72.2902C211.212 73.2055 200.293 78.849 200.293 78.849C200.293 78.849 198.516 69.545 196.357 67.5623C194.199 65.5796 204.483 61.9185 204.483 61.9185Z" fill="#FEB8B8"/>
<path id="Path 11" d="M193.183 139.248L192.675 145.044C192.675 145.044 187.216 142.756 188.993 138.485L193.183 139.248Z" fill="#FEB8B8"/>
<path id="Path 12" d="M191.025 130.554C194.834 135.434 215.022 131.315 215.022 131.315L214.769 127.808L217.308 124.607L216.547 109.659C216.547 109.659 218.831 102.643 219.211 91.9665C219.234 91.3103 219.201 90.6529 219.113 90.0048C217.804 80.4405 204.839 74.2805 204.483 74.4251C204.304 74.4961 202.396 75.6907 200.404 76.9475C198.118 78.3903 195.723 79.9161 195.723 79.9161C192.676 81.2911 193.184 103.255 192.167 105.237C191.151 107.22 192.167 114.081 192.167 114.081L191.025 120.639C191.025 120.639 187.215 125.675 191.025 130.554Z" fill="#F0F0F0"/>
<path id="Path 13" opacity="0.1" d="M203.331 82.1339C203.331 82.1339 206.886 94.9458 206.124 103.64C205.363 112.334 197.11 137.195 197.11 137.195L194.318 139.025V143.296L192.353 136.903L197.756 123.332C197.756 123.332 191.014 76.4907 203.331 82.1339Z" fill="black"/>
<path id="Path 14" opacity="0.1" d="M199.997 78.2896C203.68 75.8497 209.267 82.2582 215.108 89.1195C217.205 91.5828 218.418 91.335 219.114 90.0044C217.805 80.4402 204.84 74.2801 204.484 74.4248C204.305 74.4957 202.397 75.6904 200.405 76.9472L199.997 78.2896Z" fill="black"/>
<path id="Path 15" d="M199.998 77.1106L201.522 72.0774C201.522 72.0774 211.933 66.1289 218.79 72.0774L219.932 80.6186C219.932 80.6186 220.947 94.8033 215.107 87.9398C209.268 81.0764 203.68 74.6701 199.998 77.1106Z" fill="#F0F0F0"/>
<path id="Path 16" d="M202.96 80.069C202.96 80.069 206.515 92.8809 205.753 101.575C204.991 110.269 196.738 135.13 196.738 135.13L193.945 136.962V141.232L188.104 139.25L189.374 134.217C189.374 134.217 187.343 131.166 188.739 130.251C190.136 129.336 189.882 124.302 189.882 124.302C189.882 124.302 190.644 74.4255 202.96 80.069Z" fill="#F0F0F0"/>
<path id="Path 17" d="M205.335 65.0118C205.215 64.3281 205.231 63.5925 204.958 62.9753C204.549 62.0501 203.609 61.6629 202.74 61.5717C201.63 61.4557 200.512 61.6863 199.401 61.5951C198.29 61.5039 197.104 60.9951 196.551 59.8342C196.33 59.3711 196.221 58.8258 195.929 58.4243C195.32 57.5887 194.21 57.7181 193.335 58.0762C192.46 58.4343 191.547 58.9574 190.652 58.6774C189.9 56.1491 190.826 53.2326 192.428 51.3605C194.031 49.4884 196.191 48.481 198.337 47.7301C201.168 46.7395 204.353 46.1542 206.955 47.8182C210.729 50.2309 212.061 56.6172 211.713 61.377C211.581 63.1763 211.366 65.2137 210.155 66.4283C208.38 68.2089 205.871 68.0561 205.335 65.0118Z" fill="#2F2E41"/>
</g>
<g id="okvir">
<path id="Rectangle 1" d="M159.129 0.109802H0.0681152V122.482H159.129V0.109802Z" fill="#E6E6E6"/>
<path id="Rectangle 2" d="M155.101 15.4568H5.13672V115.241H155.101V15.4568Z" fill="white"/>
<path id="Ellipse 3" d="M5.02182 5.65475C5.71358 5.65475 6.27436 4.98111 6.27436 4.15013C6.27436 3.31915 5.71358 2.64551 5.02182 2.64551C4.33007 2.64551 3.76929 3.31915 3.76929 4.15013C3.76929 4.98111 4.33007 5.65475 5.02182 5.65475Z" fill="white"/>
<path id="Ellipse 4" d="M9.77573 5.65475C10.4675 5.65475 11.0283 4.98111 11.0283 4.15013C11.0283 3.31915 10.4675 2.64551 9.77573 2.64551C9.08397 2.64551 8.52319 3.31915 8.52319 4.15013C8.52319 4.98111 9.08397 5.65475 9.77573 5.65475Z" fill="white"/>
<path id="Ellipse 5" d="M14.5296 5.65475C15.2214 5.65475 15.7822 4.98111 15.7822 4.15013C15.7822 3.31915 15.2214 2.64551 14.5296 2.64551C13.8379 2.64551 13.2771 3.31915 13.2771 4.15013C13.2771 4.98111 13.8379 5.65475 14.5296 5.65475Z" fill="white"/>
<path id="Path 65" d="M71.5869 32.3958C70.7755 32.3958 70.1179 32.9564 70.1179 33.6476C70.1179 34.3388 70.7755 34.8994 71.5869 34.8994H140.838C141.649 34.8994 142.307 34.3388 142.307 33.6476C142.307 32.9564 141.649 32.3958 140.838 32.3958H71.5869Z" fill="#E6E6E6"/>
<path id="Path 78" d="M140.149 100.98H23.6521C22.4613 100.98 21.4962 100.154 21.4949 99.1362V74.4367C21.4962 73.4189 22.4613 72.593 23.6521 72.593H140.149C141.34 72.593 142.305 73.4189 142.306 74.4367V99.1359C142.305 100.154 141.34 100.979 140.149 100.98ZM23.6521 73.3299C22.9376 73.3299 22.3585 73.8255 22.3577 74.4361V99.1352C22.3577 99.7458 22.9376 100.241 23.6521 100.241H140.149C140.864 100.241 141.443 99.7458 141.444 99.1352V74.4367C141.444 73.8261 140.864 73.3311 140.149 73.3305L23.6521 73.3299Z" fill="#E6E6E6"/>
<path id="Ellipse 13" d="M35.6485 93.0368C38.527 93.0368 40.8605 90.2337 40.8605 86.7758C40.8605 83.318 38.527 80.5149 35.6485 80.5149C32.77 80.5149 30.4365 83.318 30.4365 86.7758C30.4365 90.2337 32.77 93.0368 35.6485 93.0368Z" fill="#E6E6E6"/>
<path id="Path 81" d="M71.0811 39.8954C70.8192 39.9208 70.5749 40.0637 70.3967 40.2957C70.2186 40.5276 70.1196 40.8317 70.1196 41.1473C70.1196 41.4629 70.2186 41.7669 70.3967 41.9989C70.5749 42.2308 70.8192 42.3737 71.0811 42.3991H116.466C116.728 42.3737 116.973 42.2308 117.151 41.9989C117.329 41.7669 117.428 41.4629 117.428 41.1473C117.428 40.8317 117.329 40.5276 117.151 40.2957C116.973 40.0637 116.728 39.9208 116.466 39.8954H71.0811Z" fill="#E6E6E6"/>
<path id="Path 82" d="M71.3798 47.3951C70.6829 47.3951 70.1179 47.9557 70.1179 48.6469C70.1179 49.3381 70.6829 49.8987 71.3798 49.8987H130.872C131.569 49.8987 132.134 49.3381 132.134 48.6469C132.134 47.9557 131.569 47.3951 130.872 47.3951H71.3798Z" fill="#E6E6E6"/>
</g>
<path id="duzaCrta" d="M50.3486 81.7686C50.0722 81.7681 49.807 81.8996 49.6114 82.1341C49.4157 82.3685 49.3055 82.6868 49.3052 83.0188C49.3048 83.3508 49.4143 83.6693 49.6094 83.9044C49.8046 84.1395 50.0695 84.2718 50.3459 84.2722H99.4774C99.7538 84.2722 100.019 84.1403 100.214 83.9055C100.41 83.6708 100.519 83.3524 100.519 83.0204C100.519 82.6884 100.41 82.37 100.214 82.1352C100.019 81.9004 99.7538 81.7686 99.4774 81.7686H50.3486Z" fill="#F9A826"/>
<path id="vece" d="M39.5009 29.4427L49.4203 41.21L39.5009 52.977L37.269 50.2959L44.7704 41.2844L37.2063 32.1982L39.5009 29.4427Z" fill="#F9A826"/>
<path id="naslovnaTraka" d="M159.061 0H0V8.11745H159.061V0Z" fill="#F9A826"/>
<path id="manje" d="M31.3732 29.4427L21.4536 41.21L31.3732 52.977L33.6052 50.2959L26.1043 41.2841L33.6679 32.1982L31.3732 29.4427Z" fill="#F9A826"/>
<path id="kracaCrta" d="M50.3486 89.2798C50.2118 89.2796 50.0762 89.3117 49.9497 89.3745C49.8232 89.4372 49.7082 89.5292 49.6114 89.6453C49.4157 89.8797 49.3055 90.198 49.3052 90.53C49.3048 90.862 49.4143 91.1806 49.6094 91.4157C49.8046 91.6507 50.0695 91.783 50.3459 91.7835H71.4885C71.7649 91.7839 72.0301 91.6524 72.2258 91.418C72.4215 91.1835 72.5316 90.8653 72.5319 90.5332C72.5323 90.2012 72.4229 89.8827 72.2277 89.6476C72.0325 89.4125 71.7676 89.2802 71.4912 89.2798H50.3486Z" fill="#F9A826"/>
</g>
</svg>
