<svg width="465" height="97" viewBox="0 0 465 97" fill="none" xmlns="http://www.w3.org/2000/svg">
<g id="JavaScript">
<path d="M28.1 61.9C28.1 67.7667 26.9667 72.7333 24.7 76.8C22.5 80.9333 19.4667 84.1 15.6 86.3C11.7333 88.5667 7.3 89.7667 2.3 89.9V80.5C6.96667 80.2333 10.8 78.5667 13.8 75.5C16.8667 72.5 18.4 67.8667 18.4 61.6V2.7H28.1V61.9ZM63.9234 76C59.9901 76 56.4234 75.1667 53.2234 73.5C50.0901 71.8333 47.5901 69.4 45.7234 66.2C43.9234 62.9333 43.0234 58.9667 43.0234 54.3C43.0234 49.6333 43.9568 45.6333 45.8234 42.3C47.7568 38.9667 50.3234 36.4 53.5234 34.6C56.7901 32.8 60.3568 31.9 64.2234 31.9C67.9568 31.9 71.1234 32.7 73.7234 34.3C76.3234 35.9 78.3568 37.8333 79.8234 40.1L80.5234 33.6H89.1234V75H79.8234V68.2C79.0234 69.2667 77.8568 70.4 76.3234 71.6C74.8568 72.8 73.0568 73.8333 70.9234 74.7C68.8568 75.5667 66.5234 76 63.9234 76ZM66.4234 68.3C69.8234 68.3 72.7234 67.3667 75.1234 65.5C77.5234 63.5667 79.0901 60.9667 79.8234 57.7V49.5C79.0234 46.6333 77.3568 44.2667 74.8234 42.4C72.2901 40.5333 69.3901 39.6 66.1234 39.6C63.5901 39.6 61.2901 40.2 59.2234 41.4C57.1568 42.6 55.4901 44.2667 54.2234 46.4C53.0234 48.5333 52.4234 51 52.4234 53.8C52.4234 56.5333 53.0568 59 54.3234 61.2C55.5901 63.3333 57.2901 65.0667 59.4234 66.4C61.5568 67.6667 63.8901 68.3 66.4234 68.3ZM122.115 76.2L99.1148 33.6H110.215L122.715 60.1L134.315 33.6H144.715L122.615 76.2H122.115ZM170.466 76C166.533 76 162.966 75.1667 159.766 73.5C156.633 71.8333 154.133 69.4 152.266 66.2C150.466 62.9333 149.566 58.9667 149.566 54.3C149.566 49.6333 150.5 45.6333 152.366 42.3C154.3 38.9667 156.866 36.4 160.066 34.6C163.333 32.8 166.9 31.9 170.766 31.9C174.5 31.9 177.666 32.7 180.266 34.3C182.866 35.9 184.9 37.8333 186.366 40.1L187.066 33.6H195.666V75H186.366V68.2C185.566 69.2667 184.4 70.4 182.866 71.6C181.4 72.8 179.6 73.8333 177.466 74.7C175.4 75.5667 173.066 76 170.466 76ZM172.966 68.3C176.366 68.3 179.266 67.3667 181.666 65.5C184.066 63.5667 185.633 60.9667 186.366 57.7V49.5C185.566 46.6333 183.9 44.2667 181.366 42.4C178.833 40.5333 175.933 39.6 172.666 39.6C170.133 39.6 167.833 40.2 165.766 41.4C163.7 42.6 162.033 44.2667 160.766 46.4C159.566 48.5333 158.966 51 158.966 53.8C158.966 56.5333 159.6 59 160.866 61.2C162.133 63.3333 163.833 65.0667 165.966 66.4C168.1 67.6667 170.433 68.3 172.966 68.3ZM251.558 15.6C249.091 14.3333 246.391 13.2333 243.458 12.3C240.524 11.3667 237.691 10.9 234.958 10.9C231.024 10.9 227.891 11.8 225.558 13.6C223.291 15.4 222.158 17.8333 222.158 20.9C222.158 23.1 222.891 24.9667 224.358 26.5C225.891 28.0333 227.824 29.4 230.158 30.6C232.558 31.7333 235.091 32.8 237.758 33.8C240.758 34.9333 243.658 36.3 246.458 37.9C249.258 39.5 251.558 41.6667 253.358 44.4C255.224 47.0667 256.158 50.6667 256.158 55.2C256.158 59.0667 255.191 62.5667 253.258 65.7C251.324 68.7667 248.591 71.2333 245.058 73.1C241.524 74.9 237.324 75.8 232.458 75.8C227.658 75.8 223.191 75.0333 219.058 73.5C214.991 71.9667 211.524 70.2 208.658 68.2L212.958 60.5C215.291 62.3 218.158 63.8667 221.558 65.2C225.024 66.5333 228.324 67.2 231.458 67.2C233.791 67.2 236.058 66.8 238.258 66C240.524 65.2 242.391 63.9333 243.858 62.2C245.324 60.4 246.058 58.1 246.058 55.3C246.058 52.9 245.391 50.8667 244.058 49.2C242.724 47.5333 240.991 46.1333 238.858 45C236.791 43.8 234.524 42.7333 232.058 41.8C229.791 41 227.491 40.0667 225.158 39C222.824 37.9333 220.658 36.6667 218.658 35.2C216.724 33.6667 215.158 31.8 213.958 29.6C212.758 27.4 212.158 24.7333 212.158 21.6C212.158 17.8 213.058 14.5 214.858 11.7C216.724 8.83333 219.258 6.59999 222.458 5C225.658 3.33333 229.358 2.43333 233.558 2.29999C238.158 2.29999 242.224 2.86666 245.758 4C249.358 5.13333 252.524 6.5 255.258 8.1L251.558 15.6ZM303.661 71.1C301.794 72.6333 299.561 73.8333 296.961 74.7C294.361 75.5667 291.761 76 289.161 76C284.694 76 280.728 75.1 277.261 73.3C273.861 71.5 271.194 68.9667 269.261 65.7C267.394 62.4333 266.461 58.6 266.461 54.2C266.461 49.8 267.461 46 269.461 42.8C271.528 39.5333 274.194 37 277.461 35.2C280.794 33.4 284.394 32.5 288.261 32.5C291.594 32.5 294.561 32.9667 297.161 33.9C299.761 34.8333 302.028 36.1 303.961 37.7L299.261 43.8C298.061 42.9333 296.594 42.1333 294.861 41.4C293.128 40.6 291.194 40.2 289.061 40.2C286.594 40.2 284.361 40.8333 282.361 42.1C280.361 43.3 278.761 44.9667 277.561 47.1C276.361 49.1667 275.761 51.5333 275.761 54.2C275.761 56.8 276.361 59.1667 277.561 61.3C278.761 63.4333 280.428 65.1333 282.561 66.4C284.694 67.6667 287.161 68.3 289.961 68.3C291.694 68.3 293.294 68.0333 294.761 67.5C296.294 66.9667 297.661 66.2333 298.861 65.3L303.661 71.1ZM323.966 33.6L324.666 43.3C325.8 40.9667 327.366 38.9667 329.366 37.3C331.366 35.5667 333.433 34.2667 335.566 33.4C337.766 32.4667 339.666 31.9667 341.266 31.9L340.866 41.2C337.733 41.0667 334.966 41.7 332.566 43.1C330.166 44.4333 328.3 46.2667 326.966 48.6C325.633 50.9333 324.966 53.4333 324.966 56.1V75H315.666V33.6H323.966ZM353.264 33.6H362.564V75H353.264V33.6ZM352.564 18.7C352.564 17.1667 353.131 15.9333 354.264 15C355.464 14 356.764 13.5 358.164 13.5C359.564 13.5 360.831 14 361.964 15C363.097 15.9333 363.664 17.1667 363.664 18.7C363.664 20.2333 363.097 21.5 361.964 22.5C360.831 23.4333 359.564 23.9 358.164 23.9C356.764 23.9 355.464 23.4333 354.264 22.5C353.131 21.5 352.564 20.2333 352.564 18.7ZM403.252 76C400.252 76 397.352 75.3667 394.552 74.1C391.819 72.7667 389.652 71 388.052 68.8V94.9H378.752V32.9H386.852L387.652 39.9C389.652 37.5667 392.119 35.6667 395.052 34.2C398.052 32.6667 401.352 31.9 404.952 31.9C408.886 31.9 412.386 32.8333 415.452 34.7C418.586 36.5667 421.052 39.1667 422.852 42.5C424.652 45.8333 425.552 49.7333 425.552 54.2C425.552 58.6667 424.552 62.5333 422.552 65.8C420.619 69.0667 417.952 71.6 414.552 73.4C411.219 75.1333 407.452 76 403.252 76ZM401.452 68.5C404.052 68.5 406.452 67.9 408.652 66.7C410.919 65.4333 412.719 63.7333 414.052 61.6C415.386 59.4667 416.052 57.0333 416.052 54.3C416.052 51.5 415.419 49.0333 414.152 46.9C412.886 44.7 411.186 43 409.052 41.8C406.986 40.5333 404.652 39.9 402.052 39.9C398.452 39.9 395.419 40.9 392.952 42.9C390.486 44.9 388.852 47.5 388.052 50.7V57.7C388.586 60.8333 390.086 63.4333 392.552 65.5C395.086 67.5 398.052 68.5 401.452 68.5ZM442.03 15.4H451.43V33.7H462.73V41.1H451.43V75H442.03V41.1H434.43V33.7H442.03V15.4Z" fill="black"/>
<path d="M24.7 76.8L22.953 75.8263L22.9436 75.8432L22.9345 75.8603L24.7 76.8ZM15.6 86.3L14.611 84.5617L14.5997 84.5681L14.5886 84.5746L15.6 86.3ZM2.3 89.9H0.3V91.954L2.35331 91.8993L2.3 89.9ZM2.3 80.5L2.1859 78.5033L0.3 78.611V80.5H2.3ZM13.8 75.5L12.4014 74.0703L12.3857 74.0857L12.3703 74.1014L13.8 75.5ZM18.4 2.7V0.699995H16.4V2.7H18.4ZM28.1 2.7H30.1V0.699995H28.1V2.7ZM26.1 61.9C26.1 67.5129 25.016 72.1251 22.953 75.8263L26.447 77.7737C28.9174 73.3415 30.1 68.0204 30.1 61.9H26.1ZM22.9345 75.8603C20.9027 79.6777 18.1307 82.559 14.611 84.5617L16.589 88.0383C20.8026 85.641 24.0973 82.189 26.4655 77.7397L22.9345 75.8603ZM14.5886 84.5746C11.0456 86.6515 6.94918 87.7753 2.24669 87.9007L2.35331 91.8993C7.65082 91.758 12.4211 90.4818 16.6114 88.0254L14.5886 84.5746ZM4.3 89.9V80.5H0.3V89.9H4.3ZM2.4141 82.4967C7.53009 82.2044 11.8485 80.3549 15.2297 76.8986L12.3703 74.1014C9.75147 76.7785 6.40325 78.2623 2.1859 78.5033L2.4141 82.4967ZM15.1986 76.9297C18.7971 73.4094 20.4 68.1563 20.4 61.6H16.4C16.4 67.577 14.9363 71.5906 12.4014 74.0703L15.1986 76.9297ZM20.4 61.6V2.7H16.4V61.6H20.4ZM18.4 4.7H28.1V0.699995H18.4V4.7ZM26.1 2.7V61.9H30.1V2.7H26.1ZM53.2234 73.5L52.2842 75.2657L52.2919 75.2698L52.2996 75.2738L53.2234 73.5ZM45.7234 66.2L43.9718 67.1652L43.9836 67.1866L43.9959 67.2077L45.7234 66.2ZM45.8234 42.3L44.0934 41.2966L44.0858 41.3096L44.0784 41.3228L45.8234 42.3ZM53.5234 34.6L52.5582 32.8483L52.5506 32.8526L52.5429 32.8568L53.5234 34.6ZM73.7234 34.3L72.6752 36.0033L72.6752 36.0033L73.7234 34.3ZM79.8234 40.1L78.1443 41.1865L81.2081 45.9214L81.8119 40.3141L79.8234 40.1ZM80.5234 33.6V31.6H78.7273L78.5349 33.3859L80.5234 33.6ZM89.1234 33.6H91.1234V31.6H89.1234V33.6ZM89.1234 75V77H91.1234V75H89.1234ZM79.8234 75H77.8234V77H79.8234V75ZM79.8234 68.2H81.8234V62.2L78.2234 67L79.8234 68.2ZM76.3234 71.6L75.0908 70.025L75.0737 70.0384L75.057 70.0521L76.3234 71.6ZM70.9234 74.7L70.1707 72.8471L70.1603 72.8513L70.15 72.8556L70.9234 74.7ZM75.1234 65.5L76.3513 67.0787L76.3648 67.0682L76.3781 67.0575L75.1234 65.5ZM79.8234 57.7L81.7749 58.1381L81.8234 57.9217V57.7H79.8234ZM79.8234 49.5H81.8234V49.2262L81.7498 48.9624L79.8234 49.5ZM74.8234 42.4L73.637 44.0101L73.637 44.0101L74.8234 42.4ZM59.2234 41.4L58.2192 39.6704L58.2192 39.6704L59.2234 41.4ZM54.2234 46.4L52.5037 45.3789L52.4918 45.3991L52.4803 45.4195L54.2234 46.4ZM54.3234 61.2L52.5902 62.1979L52.5969 62.2095L52.6037 62.2211L54.3234 61.2ZM59.4234 66.4L58.3634 68.096L58.3828 68.1081L58.4024 68.1197L59.4234 66.4ZM63.9234 74C60.2822 74 57.0369 73.2311 54.1473 71.7262L52.2996 75.2738C55.81 77.1022 59.6981 78 63.9234 78V74ZM54.1627 71.7343C51.3722 70.25 49.139 68.086 47.451 65.1923L43.9959 67.2077C46.0412 70.714 48.808 73.4167 52.2842 75.2657L54.1627 71.7343ZM47.4751 65.2348C45.874 62.3291 45.0234 58.7126 45.0234 54.3H41.0234C41.0234 59.2208 41.9729 63.5376 43.9718 67.1652L47.4751 65.2348ZM45.0234 54.3C45.0234 49.9003 45.9023 46.2526 47.5685 43.2772L44.0784 41.3228C42.0113 45.0141 41.0234 49.3664 41.0234 54.3H45.0234ZM47.5535 43.3034C49.3168 40.2632 51.6311 37.9591 54.504 36.3431L52.5429 32.8568C49.0158 34.8409 46.1967 37.6701 44.0934 41.2966L47.5535 43.3034ZM54.4886 36.3517C57.4486 34.7207 60.6814 33.9 64.2234 33.9V29.9C60.0321 29.9 56.1316 30.8793 52.5582 32.8483L54.4886 36.3517ZM64.2234 33.9C67.6692 33.9 70.4541 34.6364 72.6752 36.0033L74.7716 32.5967C71.7928 30.7636 68.2443 29.9 64.2234 29.9V33.9ZM72.6752 36.0033C75.0549 37.4677 76.8594 39.2007 78.1443 41.1865L81.5026 39.0135C79.8542 36.4659 77.5919 34.3323 74.7716 32.5967L72.6752 36.0033ZM81.8119 40.3141L82.5119 33.8141L78.5349 33.3859L77.8349 39.8859L81.8119 40.3141ZM80.5234 35.6H89.1234V31.6H80.5234V35.6ZM87.1234 33.6V75H91.1234V33.6H87.1234ZM89.1234 73H79.8234V77H89.1234V73ZM81.8234 75V68.2H77.8234V75H81.8234ZM78.2234 67C77.5651 67.8778 76.5431 68.8884 75.0908 70.025L77.5561 73.175C79.1704 71.9116 80.4818 70.6556 81.4234 69.4L78.2234 67ZM75.057 70.0521C73.7744 71.1014 72.1569 72.0402 70.1707 72.8471L71.6762 76.5529C73.9566 75.6265 75.9391 74.4986 77.5899 73.1479L75.057 70.0521ZM70.15 72.8556C68.3643 73.6045 66.2999 74 63.9234 74V78C66.747 78 69.3493 77.5289 71.6969 76.5444L70.15 72.8556ZM66.4234 70.3C70.2127 70.3 73.5588 69.2506 76.3513 67.0787L73.8956 63.9213C71.8881 65.4827 69.4342 66.3 66.4234 66.3V70.3ZM76.3781 67.0575C79.1613 64.8154 80.9516 61.8053 81.7749 58.1381L77.872 57.2619C77.2286 60.1281 75.8855 62.3179 73.8688 63.9425L76.3781 67.0575ZM81.8234 57.7V49.5H77.8234V57.7H81.8234ZM81.7498 48.9624C80.8226 45.6399 78.8805 42.9051 76.0098 40.7899L73.637 44.0101C75.833 45.6282 77.2242 47.6267 77.897 50.0376L81.7498 48.9624ZM76.0098 40.7899C73.119 38.6598 69.7996 37.6 66.1234 37.6V41.6C68.9806 41.6 71.4612 42.4068 73.637 44.0101L76.0098 40.7899ZM66.1234 37.6C63.2594 37.6 60.6094 38.2826 58.2192 39.6704L60.2277 43.1296C61.9708 42.1174 63.9209 41.6 66.1234 41.6V37.6ZM58.2192 39.6704C55.846 41.0484 53.9376 42.9639 52.5037 45.3789L55.9431 47.4211C57.0426 45.5694 58.4675 44.1516 60.2277 43.1296L58.2192 39.6704ZM52.4803 45.4195C51.0889 47.893 50.4234 50.7066 50.4234 53.8H54.4234C54.4234 51.2934 54.9579 49.1737 55.9666 47.3805L52.4803 45.4195ZM50.4234 53.8C50.4234 56.8558 51.1354 59.6712 52.5902 62.1979L56.0567 60.2021C54.9781 58.3288 54.4234 56.2108 54.4234 53.8H50.4234ZM52.6037 62.2211C54.0357 64.6328 55.9634 66.596 58.3634 68.096L60.4834 64.704C58.6168 63.5373 57.1445 62.0339 56.0431 60.1789L52.6037 62.2211ZM58.4024 68.1197C60.8515 69.5739 63.5387 70.3 66.4234 70.3V66.3C64.2415 66.3 62.2621 65.7595 60.4445 64.6803L58.4024 68.1197ZM122.115 76.2L120.355 77.1502L120.922 78.2H122.115V76.2ZM99.1148 33.6V31.6H95.7621L97.355 34.5502L99.1148 33.6ZM110.215 33.6L112.024 32.7468L111.483 31.6H110.215V33.6ZM122.715 60.1L120.906 60.9532L122.783 64.9322L124.547 60.902L122.715 60.1ZM134.315 33.6V31.6H133.007L132.483 32.798L134.315 33.6ZM144.715 33.6L146.49 34.521L148.006 31.6H144.715V33.6ZM122.615 76.2V78.2H123.83L124.39 77.121L122.615 76.2ZM123.875 75.2498L100.875 32.6498L97.355 34.5502L120.355 77.1502L123.875 75.2498ZM99.1148 35.6H110.215V31.6H99.1148V35.6ZM108.406 34.4532L120.906 60.9532L124.524 59.2468L112.024 32.7468L108.406 34.4532ZM124.547 60.902L136.147 34.402L132.483 32.798L120.883 59.298L124.547 60.902ZM134.315 35.6H144.715V31.6H134.315V35.6ZM142.94 32.679L120.84 75.279L124.39 77.121L146.49 34.521L142.94 32.679ZM122.615 74.2H122.115V78.2H122.615V74.2ZM159.766 73.5L158.827 75.2657L158.835 75.2698L158.843 75.2738L159.766 73.5ZM152.266 66.2L150.515 67.1652L150.527 67.1866L150.539 67.2077L152.266 66.2ZM152.366 42.3L150.636 41.2966L150.629 41.3096L150.621 41.3228L152.366 42.3ZM160.066 34.6L159.101 32.8483L159.094 32.8526L159.086 32.8568L160.066 34.6ZM180.266 34.3L179.218 36.0033L179.218 36.0033L180.266 34.3ZM186.366 40.1L184.687 41.1865L187.751 45.9214L188.355 40.3141L186.366 40.1ZM187.066 33.6V31.6H185.27L185.078 33.3859L187.066 33.6ZM195.666 33.6H197.666V31.6H195.666V33.6ZM195.666 75V77H197.666V75H195.666ZM186.366 75H184.366V77H186.366V75ZM186.366 68.2H188.366V62.2L184.766 67L186.366 68.2ZM182.866 71.6L181.634 70.025L181.617 70.0384L181.6 70.0521L182.866 71.6ZM177.466 74.7L176.714 72.8471L176.703 72.8513L176.693 72.8556L177.466 74.7ZM181.666 65.5L182.894 67.0787L182.908 67.0682L182.921 67.0575L181.666 65.5ZM186.366 57.7L188.318 58.1381L188.366 57.9217V57.7H186.366ZM186.366 49.5H188.366V49.2262L188.293 48.9624L186.366 49.5ZM181.366 42.4L180.18 44.0101L180.18 44.0101L181.366 42.4ZM165.766 41.4L164.762 39.6704L164.762 39.6704L165.766 41.4ZM160.766 46.4L159.047 45.3789L159.035 45.3991L159.023 45.4195L160.766 46.4ZM160.866 61.2L159.133 62.1979L159.14 62.2095L159.147 62.2211L160.866 61.2ZM165.966 66.4L164.906 68.096L164.926 68.1081L164.945 68.1197L165.966 66.4ZM170.466 74C166.825 74 163.58 73.2311 160.69 71.7262L158.843 75.2738C162.353 77.1022 166.241 78 170.466 78V74ZM160.706 71.7343C157.915 70.25 155.682 68.086 153.994 65.1923L150.539 67.2077C152.584 70.714 155.351 73.4167 158.827 75.2657L160.706 71.7343ZM154.018 65.2348C152.417 62.3291 151.566 58.7126 151.566 54.3H147.566C147.566 59.2208 148.516 63.5376 150.515 67.1652L154.018 65.2348ZM151.566 54.3C151.566 49.9003 152.445 46.2526 154.111 43.2772L150.621 41.3228C148.554 45.0141 147.566 49.3664 147.566 54.3H151.566ZM154.096 43.3034C155.86 40.2632 158.174 37.9591 161.047 36.3431L159.086 32.8568C155.559 34.8409 152.74 37.6701 150.636 41.2966L154.096 43.3034ZM161.032 36.3517C163.992 34.7207 167.224 33.9 170.766 33.9V29.9C166.575 29.9 162.675 30.8793 159.101 32.8483L161.032 36.3517ZM170.766 33.9C174.212 33.9 176.997 34.6364 179.218 36.0033L181.315 32.5967C178.336 30.7636 174.787 29.9 170.766 29.9V33.9ZM179.218 36.0033C181.598 37.4677 183.402 39.2007 184.687 41.1865L188.046 39.0135C186.397 36.4659 184.135 34.3323 181.315 32.5967L179.218 36.0033ZM188.355 40.3141L189.055 33.8141L185.078 33.3859L184.378 39.8859L188.355 40.3141ZM187.066 35.6H195.666V31.6H187.066V35.6ZM193.666 33.6V75H197.666V33.6H193.666ZM195.666 73H186.366V77H195.666V73ZM188.366 75V68.2H184.366V75H188.366ZM184.766 67C184.108 67.8778 183.086 68.8884 181.634 70.025L184.099 73.175C185.713 71.9116 187.025 70.6556 187.966 69.4L184.766 67ZM181.6 70.0521C180.317 71.1014 178.7 72.0402 176.714 72.8471L178.219 76.5529C180.5 75.6265 182.482 74.4986 184.133 73.1479L181.6 70.0521ZM176.693 72.8556C174.907 73.6045 172.843 74 170.466 74V78C173.29 78 175.892 77.5289 178.24 76.5444L176.693 72.8556ZM172.966 70.3C176.756 70.3 180.102 69.2506 182.894 67.0787L180.439 63.9213C178.431 65.4827 175.977 66.3 172.966 66.3V70.3ZM182.921 67.0575C185.704 64.8154 187.495 61.8053 188.318 58.1381L184.415 57.2619C183.772 60.1281 182.429 62.3179 180.412 63.9425L182.921 67.0575ZM188.366 57.7V49.5H184.366V57.7H188.366ZM188.293 48.9624C187.366 45.6399 185.424 42.9051 182.553 40.7899L180.18 44.0101C182.376 45.6282 183.767 47.6267 184.44 50.0376L188.293 48.9624ZM182.553 40.7899C179.662 38.6598 176.343 37.6 172.666 37.6V41.6C175.524 41.6 178.004 42.4068 180.18 44.0101L182.553 40.7899ZM172.666 37.6C169.802 37.6 167.152 38.2826 164.762 39.6704L166.771 43.1296C168.514 42.1174 170.464 41.6 172.666 41.6V37.6ZM164.762 39.6704C162.389 41.0484 160.481 42.9639 159.047 45.3789L162.486 47.4211C163.586 45.5694 165.011 44.1516 166.771 43.1296L164.762 39.6704ZM159.023 45.4195C157.632 47.893 156.966 50.7066 156.966 53.8H160.966C160.966 51.2934 161.501 49.1737 162.51 47.3805L159.023 45.4195ZM156.966 53.8C156.966 56.8558 157.678 59.6712 159.133 62.1979L162.6 60.2021C161.521 58.3288 160.966 56.2108 160.966 53.8H156.966ZM159.147 62.2211C160.579 64.6328 162.506 66.596 164.906 68.096L167.026 64.704C165.16 63.5373 163.688 62.0339 162.586 60.1789L159.147 62.2211ZM164.945 68.1197C167.394 69.5739 170.082 70.3 172.966 70.3V66.3C170.784 66.3 168.805 65.7595 166.987 64.6803L164.945 68.1197ZM251.558 15.6L250.644 17.3791L252.452 18.3076L253.351 16.4848L251.558 15.6ZM225.558 13.6L224.336 12.0164L224.325 12.025L224.314 12.0338L225.558 13.6ZM224.358 26.5L222.913 27.8824L222.928 27.8985L222.944 27.9142L224.358 26.5ZM230.158 30.6L229.243 32.3786L229.273 32.394L229.304 32.4085L230.158 30.6ZM237.758 33.8L238.465 31.929L238.46 31.9273L237.758 33.8ZM246.458 37.9L247.45 36.1635L247.45 36.1635L246.458 37.9ZM253.358 44.4L251.687 45.5L251.703 45.5237L251.719 45.5469L253.358 44.4ZM253.258 65.7L254.95 66.7666L254.955 66.7584L254.96 66.7502L253.258 65.7ZM245.058 73.1L245.966 74.8821L245.979 74.8753L245.992 74.8684L245.058 73.1ZM219.058 73.5L218.352 75.3714L218.362 75.3751L219.058 73.5ZM208.658 68.2L206.912 67.2249L206.029 68.8048L207.513 69.8403L208.658 68.2ZM212.958 60.5L214.179 58.9164L212.343 57.4995L211.212 59.5249L212.958 60.5ZM221.558 65.2L220.828 67.062L220.84 67.0667L221.558 65.2ZM238.258 66L237.592 64.114L237.583 64.1172L237.574 64.1204L238.258 66ZM243.858 62.2L245.385 63.4919L245.397 63.4777L245.408 63.4633L243.858 62.2ZM244.058 49.2L245.62 47.9506L245.62 47.9506L244.058 49.2ZM238.858 45L237.854 46.7296L237.886 46.7485L237.92 46.7662L238.858 45ZM232.058 41.8L232.766 39.9294L232.745 39.9215L232.723 39.914L232.058 41.8ZM225.158 39L225.989 37.181L225.989 37.181L225.158 39ZM218.658 35.2L217.415 36.767L217.445 36.7905L217.475 36.8128L218.658 35.2ZM214.858 11.7L213.182 10.6086L213.175 10.6185L214.858 11.7ZM222.458 5L223.352 6.78885L223.367 6.78146L223.382 6.77382L222.458 5ZM233.558 2.29999V0.299994H233.526L233.494 0.301001L233.558 2.29999ZM245.758 4L245.147 5.90445L245.157 5.90769L245.758 4ZM255.258 8.1L257.051 8.98485L257.875 7.31475L256.268 6.37397L255.258 8.1ZM252.471 13.8209C249.896 12.4983 247.092 11.3575 244.064 10.3941L242.851 14.2058C245.69 15.1092 248.286 16.1683 250.644 17.3791L252.471 13.8209ZM244.064 10.3941C240.959 9.40618 237.921 8.9 234.958 8.9V12.9C237.461 12.9 240.09 13.3271 242.851 14.2058L244.064 10.3941ZM234.958 8.9C230.73 8.9 227.121 9.86845 224.336 12.0164L226.779 15.1836C228.662 13.7315 231.319 12.9 234.958 12.9V8.9ZM224.314 12.0338C221.538 14.2385 220.158 17.2651 220.158 20.9H224.158C224.158 18.4015 225.045 16.5615 226.802 15.1662L224.314 12.0338ZM220.158 20.9C220.158 23.594 221.076 25.962 222.913 27.8824L225.803 25.1176C224.707 23.9713 224.158 22.606 224.158 20.9H220.158ZM222.944 27.9142C224.651 29.6212 226.763 31.103 229.243 32.3786L231.073 28.8214C228.886 27.697 227.132 26.4455 225.772 25.0858L222.944 27.9142ZM229.304 32.4085C231.757 33.5669 234.341 34.6547 237.056 35.6727L238.46 31.9273C235.841 30.9452 233.359 29.8997 231.012 28.7915L229.304 32.4085ZM237.051 35.6709C239.952 36.7668 242.756 38.0885 245.466 39.6365L247.45 36.1635C244.559 34.5115 241.564 33.0998 238.465 31.9291L237.051 35.6709ZM245.466 39.6365C247.988 41.0782 250.058 43.0251 251.687 45.5L255.028 43.3C253.058 40.3082 250.527 37.9218 247.45 36.1635L245.466 39.6365ZM251.719 45.5469C253.275 47.7688 254.158 50.9207 254.158 55.2H258.158C258.158 50.4126 257.174 46.3645 254.996 43.2531L251.719 45.5469ZM254.158 55.2C254.158 58.7152 253.284 61.8483 251.556 64.6498L254.96 66.7502C257.098 63.285 258.158 59.4181 258.158 55.2H254.158ZM251.566 64.6334C249.838 67.3742 247.38 69.6113 244.124 71.3316L245.992 74.8684C249.802 72.8553 252.811 70.1591 254.95 66.7666L251.566 64.6334ZM244.15 71.3179C240.955 72.9457 237.079 73.8 232.458 73.8V77.8C237.569 77.8 242.094 76.8543 245.966 74.8821L244.15 71.3179ZM232.458 73.8C227.874 73.8 223.645 73.0686 219.753 71.6249L218.362 75.3751C222.737 76.9981 227.441 77.8 232.458 77.8V73.8ZM219.763 71.6286C215.816 70.1403 212.504 68.4451 209.802 66.5597L207.513 69.8403C210.544 71.9549 214.166 73.7931 218.352 75.3714L219.763 71.6286ZM210.404 69.1751L214.704 61.4751L211.212 59.5249L206.912 67.2249L210.404 69.1751ZM211.736 62.0836C214.25 64.0229 217.292 65.6753 220.828 67.0619L222.288 63.3381C219.024 62.058 216.332 60.5771 214.179 58.9164L211.736 62.0836ZM220.84 67.0667C224.494 68.4722 228.038 69.2 231.458 69.2V65.2C228.611 65.2 225.555 64.5945 222.276 63.3333L220.84 67.0667ZM231.458 69.2C234.025 69.2 236.523 68.759 238.941 67.8796L237.574 64.1204C235.593 64.841 233.557 65.2 231.458 65.2V69.2ZM238.923 67.886C241.504 66.9751 243.675 65.5122 245.385 63.4919L242.331 60.9081C241.107 62.3545 239.545 63.4249 237.592 64.114L238.923 67.886ZM245.408 63.4633C247.222 61.2371 248.058 58.4619 248.058 55.3H244.058C244.058 57.7381 243.427 59.5629 242.307 60.9367L245.408 63.4633ZM248.058 55.3C248.058 52.5056 247.272 50.0159 245.62 47.9506L242.496 50.4494C243.511 51.7174 244.058 53.2944 244.058 55.3H248.058ZM245.62 47.9506C244.095 46.0446 242.139 44.4782 239.796 43.2338L237.92 46.7662C239.844 47.7884 241.354 49.022 242.496 50.4494L245.62 47.9506ZM239.862 43.2704C237.691 42.0101 235.324 40.8976 232.766 39.9294L231.35 43.6706C233.725 44.569 235.891 45.5899 237.854 46.7296L239.862 43.2704ZM232.723 39.914C230.517 39.1352 228.272 38.2246 225.989 37.181L224.326 40.8189C226.71 41.9088 229.066 42.8648 231.392 43.686L232.723 39.914ZM225.989 37.181C223.776 36.169 221.727 34.9706 219.841 33.5872L217.475 36.8128C219.589 38.3627 221.873 39.6976 224.326 40.8189L225.989 37.181ZM219.901 33.633C218.181 32.269 216.787 30.6106 215.714 28.6423L212.202 30.5577C213.528 32.9894 215.268 35.0644 217.415 36.767L219.901 33.633ZM215.714 28.6423C214.709 26.8008 214.158 24.4811 214.158 21.6H210.158C210.158 24.9856 210.806 27.9992 212.202 30.5577L215.714 28.6423ZM214.158 21.6C214.158 18.1278 214.976 15.215 216.54 12.7815L213.175 10.6185C211.14 13.785 210.158 17.4722 210.158 21.6H214.158ZM216.534 12.7913C218.197 10.2364 220.455 8.23751 223.352 6.78885L221.563 3.21114C218.061 4.96247 215.251 7.43025 213.182 10.6087L216.534 12.7913ZM223.382 6.77382C226.275 5.26692 229.672 4.42436 233.621 4.29899L233.494 0.301001C229.044 0.4423 225.041 1.39974 221.534 3.22617L223.382 6.77382ZM233.558 4.29999C237.998 4.29999 241.852 4.84748 245.147 5.90443L246.369 2.09557C242.597 0.885841 238.318 0.299994 233.558 0.299994V4.29999ZM245.157 5.90769C248.641 7.00431 251.665 8.31453 254.247 9.82603L256.268 6.37397C253.384 4.68546 250.075 3.26235 246.358 2.0923L245.157 5.90769ZM253.464 7.21515L249.764 14.7151L253.351 16.4848L257.051 8.98485L253.464 7.21515ZM303.661 71.1L304.93 72.6455L306.482 71.3713L305.202 69.8249L303.661 71.1ZM277.261 73.3L276.325 75.0676L276.332 75.0713L276.339 75.075L277.261 73.3ZM269.261 65.7L267.524 66.6923L267.532 66.7055L267.54 66.7186L269.261 65.7ZM269.461 42.8L267.771 41.7307L267.765 41.74L269.461 42.8ZM277.461 35.2L276.511 33.4402L276.503 33.4442L276.496 33.4483L277.461 35.2ZM303.961 37.7L305.545 38.9207L306.724 37.3907L305.236 36.1592L303.961 37.7ZM299.261 43.8L298.09 45.4214L299.662 46.5566L300.845 45.0207L299.261 43.8ZM294.861 41.4L294.023 43.2159L294.052 43.2294L294.082 43.2419L294.861 41.4ZM282.361 42.1L283.39 43.815L283.411 43.8026L283.431 43.7896L282.361 42.1ZM277.561 47.1L279.291 48.1043L279.297 48.0924L279.304 48.0805L277.561 47.1ZM277.561 61.3L275.818 62.2805L275.818 62.2805L277.561 61.3ZM282.561 66.4L283.582 64.6803L283.582 64.6803L282.561 66.4ZM294.761 67.5L294.104 65.611L294.091 65.6156L294.077 65.6204L294.761 67.5ZM298.861 65.3L300.402 64.0249L299.165 62.5301L297.633 63.7213L298.861 65.3ZM302.391 69.5545C300.737 70.9132 298.727 72.003 296.328 72.8026L297.593 76.5974C300.395 75.6637 302.851 74.3535 304.93 72.6455L302.391 69.5545ZM296.328 72.8026C293.921 73.605 291.535 74 289.161 74V78C291.987 78 294.801 77.5283 297.593 76.5974L296.328 72.8026ZM289.161 74C284.969 74 281.326 73.1572 278.183 71.525L276.339 75.075C280.129 77.0428 284.42 78 289.161 78V74ZM278.197 71.5324C275.118 69.9025 272.725 67.6263 270.982 64.6814L267.54 66.7186C269.664 70.3071 272.604 73.0975 276.325 75.0676L278.197 71.5324ZM270.997 64.7077C269.331 61.791 268.461 58.3114 268.461 54.2H264.461C264.461 58.8886 265.458 63.0757 267.524 66.6923L270.997 64.7077ZM268.461 54.2C268.461 50.1115 269.387 46.6924 271.157 43.86L267.765 41.74C265.535 45.3076 264.461 49.4885 264.461 54.2H268.461ZM271.151 43.8693C273.044 40.8768 275.466 38.5829 278.426 36.9517L276.496 33.4483C272.923 35.4171 270.011 38.1899 267.771 41.7307L271.151 43.8693ZM278.411 36.9598C281.446 35.3208 284.719 34.5 288.261 34.5V30.5C284.07 30.5 280.142 31.4792 276.511 33.4402L278.411 36.9598ZM288.261 34.5C291.41 34.5 294.142 34.9411 296.485 35.7824L297.837 32.0176C294.98 30.9922 291.778 30.5 288.261 30.5V34.5ZM296.485 35.7824C298.889 36.6453 300.948 37.8027 302.686 39.2408L305.236 36.1592C303.107 34.3973 300.633 33.0214 297.837 32.0176L296.485 35.7824ZM302.377 36.4793L297.677 42.5793L300.845 45.0207L305.545 38.9207L302.377 36.4793ZM300.432 42.1786C299.082 41.204 297.477 40.335 295.64 39.5581L294.082 43.2419C295.712 43.9317 297.039 44.6627 298.09 45.4214L300.432 42.1786ZM295.699 39.5841C293.674 38.6492 291.449 38.2 289.061 38.2V42.2C290.939 42.2 292.582 42.5507 294.023 43.2159L295.699 39.5841ZM289.061 38.2C286.232 38.2 283.625 38.9322 281.291 40.4104L283.431 43.7896C285.097 42.7345 286.956 42.2 289.061 42.2V38.2ZM281.332 40.385C279.019 41.7726 277.179 43.699 275.818 46.1195L279.304 48.0805C280.343 46.2343 281.703 44.8274 283.39 43.815L281.332 40.385ZM275.831 46.0957C274.434 48.5017 273.761 51.2224 273.761 54.2H277.761C277.761 51.8443 278.288 49.8316 279.291 48.1043L275.831 46.0957ZM273.761 54.2C273.761 57.1214 274.439 59.8291 275.818 62.2805L279.304 60.3195C278.283 58.5042 277.761 56.4786 277.761 54.2H273.761ZM275.818 62.2805C277.192 64.7236 279.11 66.6767 281.54 68.1197L283.582 64.6803C281.746 63.59 280.33 62.1431 279.304 60.3195L275.818 62.2805ZM281.54 68.1197C284.02 69.5925 286.849 70.3 289.961 70.3V66.3C287.473 66.3 285.368 65.7408 283.582 64.6803L281.54 68.1197ZM289.961 70.3C291.902 70.3 293.736 70.0009 295.444 69.3796L294.077 65.6204C292.853 66.0658 291.487 66.3 289.961 66.3V70.3ZM295.418 69.389C297.143 68.7889 298.705 67.9547 300.089 66.8787L297.633 63.7213C296.616 64.512 295.445 65.1444 294.104 65.611L295.418 69.389ZM297.32 66.5751L302.12 72.3751L305.202 69.8249L300.402 64.0249L297.32 66.5751ZM323.966 33.6L325.961 33.456L325.827 31.6H323.966V33.6ZM324.666 43.3L322.672 43.444L323.208 50.8798L326.465 44.1738L324.666 43.3ZM329.366 37.3L330.647 38.8364L330.662 38.8241L330.676 38.8114L329.366 37.3ZM335.566 33.4L336.319 35.2529L336.333 35.2472L336.348 35.2412L335.566 33.4ZM341.266 31.9L343.265 31.9859L343.358 29.8111L341.183 29.9017L341.266 31.9ZM340.866 41.2L340.781 43.1982L342.779 43.2832L342.865 41.2859L340.866 41.2ZM332.566 43.1L333.538 44.8483L333.556 44.8381L333.574 44.8276L332.566 43.1ZM326.966 48.6L328.703 49.5923L328.703 49.5923L326.966 48.6ZM324.966 75V77H326.966V75H324.966ZM315.666 75H313.666V77H315.666V75ZM315.666 33.6V31.6H313.666V33.6H315.666ZM321.972 33.744L322.672 43.444L326.661 43.156L325.961 33.456L321.972 33.744ZM326.465 44.1738C327.474 42.0966 328.864 40.3222 330.647 38.8364L328.086 35.7636C325.869 37.6111 324.125 39.8367 322.867 42.4262L326.465 44.1738ZM330.676 38.8114C332.535 37.2006 334.417 36.0258 336.319 35.2529L334.814 31.5471C332.449 32.5076 330.198 33.9327 328.057 35.7886L330.676 38.8114ZM336.348 35.2412C338.425 34.36 340.077 33.9513 341.35 33.8983L341.183 29.9017C339.255 29.9821 337.108 30.5734 334.785 31.5588L336.348 35.2412ZM339.268 31.8141L338.868 41.1141L342.865 41.2859L343.265 31.9859L339.268 31.8141ZM340.951 39.2018C337.486 39.0543 334.331 39.7554 331.559 41.3724L333.574 44.8276C335.602 43.6446 337.98 43.079 340.781 43.1982L340.951 39.2018ZM331.595 41.3517C328.883 42.8584 326.749 44.9501 325.23 47.6077L328.703 49.5923C329.851 47.5832 331.45 46.0083 333.538 44.8483L331.595 41.3517ZM325.23 47.6077C323.725 50.2408 322.966 53.0824 322.966 56.1H326.966C326.966 53.7842 327.541 51.6259 328.703 49.5923L325.23 47.6077ZM322.966 56.1V75H326.966V56.1H322.966ZM324.966 73H315.666V77H324.966V73ZM317.666 75V33.6H313.666V75H317.666ZM315.666 35.6H323.966V31.6H315.666V35.6ZM353.264 33.6V31.6H351.264V33.6H353.264ZM362.564 33.6H364.564V31.6H362.564V33.6ZM362.564 75V77H364.564V75H362.564ZM353.264 75H351.264V77H353.264V75ZM354.264 15L355.535 16.5439L355.544 16.5364L354.264 15ZM361.964 15L360.641 16.4997L360.666 16.5222L360.693 16.5439L361.964 15ZM361.964 22.5L363.235 24.0439L363.262 24.0222L363.287 23.9997L361.964 22.5ZM354.264 22.5L352.941 23.9997L352.987 24.0407L353.036 24.0787L354.264 22.5ZM353.264 35.6H362.564V31.6H353.264V35.6ZM360.564 33.6V75H364.564V33.6H360.564ZM362.564 73H353.264V77H362.564V73ZM355.264 75V33.6H351.264V75H355.264ZM354.564 18.7C354.564 17.7338 354.887 17.0783 355.535 16.5439L352.993 13.4561C351.375 14.7884 350.564 16.5996 350.564 18.7H354.564ZM355.544 16.5364C356.429 15.799 357.287 15.5 358.164 15.5V11.5C356.242 11.5 354.499 12.201 352.984 13.4636L355.544 16.5364ZM358.164 15.5C359.036 15.5 359.841 15.7943 360.641 16.4997L363.287 13.5003C361.82 12.2057 360.092 11.5 358.164 11.5V15.5ZM360.693 16.5439C361.342 17.0783 361.664 17.7338 361.664 18.7H365.664C365.664 16.5996 364.853 14.7884 363.235 13.4561L360.693 16.5439ZM361.664 18.7C361.664 19.669 361.337 20.3862 360.641 21.0003L363.287 23.9997C364.858 22.6138 365.664 20.7976 365.664 18.7H361.664ZM360.693 20.9561C359.899 21.6101 359.076 21.9 358.164 21.9V25.9C360.052 25.9 361.763 25.2565 363.235 24.0439L360.693 20.9561ZM358.164 21.9C357.248 21.9 356.373 21.6065 355.492 20.9213L353.036 24.0787C354.555 25.2601 356.28 25.9 358.164 25.9V21.9ZM355.587 21.0003C354.891 20.3862 354.564 19.669 354.564 18.7H350.564C350.564 20.7976 351.37 22.6138 352.941 23.9997L355.587 21.0003ZM394.552 74.1L393.675 75.8975L393.702 75.9103L393.728 75.9222L394.552 74.1ZM388.052 68.8L389.67 67.6237L386.052 62.6496V68.8H388.052ZM388.052 94.9V96.9H390.052V94.9H388.052ZM378.752 94.9H376.752V96.9H378.752V94.9ZM378.752 32.9V30.9H376.752V32.9H378.752ZM386.852 32.9L388.839 32.6729L388.637 30.9H386.852V32.9ZM387.652 39.9L385.665 40.1271L386.186 44.6839L389.171 41.2016L387.652 39.9ZM395.052 34.2L395.947 35.9889L395.955 35.9849L395.963 35.9809L395.052 34.2ZM415.452 34.7L414.412 36.4084L414.421 36.4133L414.429 36.4182L415.452 34.7ZM422.852 42.5L421.093 43.4503L421.093 43.4503L422.852 42.5ZM422.552 65.8L420.847 64.7557L420.839 64.7685L420.831 64.7814L422.552 65.8ZM414.552 73.4L415.475 75.1744L415.482 75.171L415.488 75.1676L414.552 73.4ZM408.652 66.7L409.61 68.4558L409.619 68.4509L409.628 68.4459L408.652 66.7ZM414.052 61.6L412.356 60.54L412.356 60.54L414.052 61.6ZM414.152 46.9L412.419 47.8979L412.426 47.9095L412.433 47.9211L414.152 46.9ZM409.052 41.8L408.007 43.5052L408.039 43.5248L408.072 43.5431L409.052 41.8ZM392.952 42.9L391.693 41.3465L391.693 41.3465L392.952 42.9ZM388.052 50.7L386.112 50.2149L386.052 50.4538V50.7H388.052ZM388.052 57.7H386.052V57.869L386.081 58.0356L388.052 57.7ZM392.552 65.5L391.268 67.033L391.29 67.0517L391.313 67.0698L392.552 65.5ZM403.252 74C400.544 74 397.924 73.4302 395.377 72.2778L393.728 75.9222C396.781 77.3031 399.961 78 403.252 78V74ZM395.429 72.3025C392.955 71.0953 391.056 69.5292 389.67 67.6237L386.435 69.9763C388.249 72.4708 390.683 74.438 393.675 75.8975L395.429 72.3025ZM386.052 68.8V94.9H390.052V68.8H386.052ZM388.052 92.9H378.752V96.9H388.052V92.9ZM380.752 94.9V32.9H376.752V94.9H380.752ZM378.752 34.9H386.852V30.9H378.752V34.9ZM384.865 33.1271L385.665 40.1271L389.639 39.6729L388.839 32.6729L384.865 33.1271ZM389.171 41.2016C390.986 39.084 393.236 37.3444 395.947 35.9889L394.158 32.4111C391.002 33.9889 388.319 36.0494 386.134 38.5984L389.171 41.2016ZM395.963 35.9809C398.662 34.6014 401.647 33.9 404.952 33.9V29.9C401.058 29.9 397.443 30.732 394.142 32.4191L395.963 35.9809ZM404.952 33.9C408.555 33.9 411.689 34.7505 414.412 36.4084L416.492 32.9916C413.083 30.9162 409.216 29.9 404.952 29.9V33.9ZM414.429 36.4182C417.24 38.0927 419.457 40.4218 421.093 43.4503L424.612 41.5497C422.648 37.9115 419.932 35.0406 416.476 32.9818L414.429 36.4182ZM421.093 43.4503C422.709 46.4435 423.552 50.0057 423.552 54.2H427.552C427.552 49.461 426.596 45.2232 424.612 41.5497L421.093 43.4503ZM423.552 54.2C423.552 58.3603 422.624 61.8525 420.847 64.7557L424.258 66.8443C426.481 63.2142 427.552 58.9731 427.552 54.2H423.552ZM420.831 64.7814C419.088 67.7263 416.695 70.0025 413.617 71.6324L415.488 75.1676C419.209 73.1975 422.15 70.4071 424.274 66.8186L420.831 64.7814ZM413.63 71.6256C410.614 73.194 407.17 74 403.252 74V78C407.735 78 411.825 77.0727 415.475 75.1744L413.63 71.6256ZM401.452 70.5C404.374 70.5 407.105 69.8222 409.61 68.4558L407.695 64.9442C405.8 65.9778 403.731 66.5 401.452 66.5V70.5ZM409.628 68.4459C412.179 67.0204 414.231 65.0884 415.748 62.66L412.356 60.54C411.207 62.3783 409.659 63.8463 407.677 64.9541L409.628 68.4459ZM415.748 62.66C417.297 60.1814 418.052 57.3745 418.052 54.3H414.052C414.052 56.6922 413.474 58.7519 412.356 60.54L415.748 62.66ZM418.052 54.3C418.052 51.1879 417.345 48.3595 415.872 45.8789L412.433 47.9211C413.493 49.7072 414.052 51.8121 414.052 54.3H418.052ZM415.886 45.9021C414.447 43.4026 412.491 41.4398 410.033 40.0568L408.072 43.5431C409.88 44.5602 411.325 45.9974 412.419 47.8979L415.886 45.9021ZM410.097 40.0948C407.693 38.6213 404.993 37.9 402.052 37.9V41.9C404.311 41.9 406.278 42.4454 408.007 43.5052L410.097 40.0948ZM402.052 37.9C398.058 37.9 394.563 39.0193 391.693 41.3465L394.212 44.4535C396.275 42.7807 398.846 41.9 402.052 41.9V37.9ZM391.693 41.3465C388.876 43.6306 387.013 46.6119 386.112 50.2149L389.993 51.1851C390.692 48.3881 392.096 46.1694 394.212 44.4535L391.693 41.3465ZM386.052 50.7V57.7H390.052V50.7H386.052ZM386.081 58.0356C386.695 61.6434 388.442 64.6656 391.268 67.033L393.837 63.967C391.729 62.201 390.477 60.0233 390.024 57.3644L386.081 58.0356ZM391.313 67.0698C394.219 69.364 397.628 70.5 401.452 70.5V66.5C398.476 66.5 395.952 65.636 393.792 63.9302L391.313 67.0698ZM442.03 15.4V13.4H440.03V15.4H442.03ZM451.43 15.4H453.43V13.4H451.43V15.4ZM451.43 33.7H449.43V35.7H451.43V33.7ZM462.73 33.7H464.73V31.7H462.73V33.7ZM462.73 41.1V43.1H464.73V41.1H462.73ZM451.43 41.1V39.1H449.43V41.1H451.43ZM451.43 75V77H453.43V75H451.43ZM442.03 75H440.03V77H442.03V75ZM442.03 41.1H444.03V39.1H442.03V41.1ZM434.43 41.1H432.43V43.1H434.43V41.1ZM434.43 33.7V31.7H432.43V33.7H434.43ZM442.03 33.7V35.7H444.03V33.7H442.03ZM442.03 17.4H451.43V13.4H442.03V17.4ZM449.43 15.4V33.7H453.43V15.4H449.43ZM451.43 35.7H462.73V31.7H451.43V35.7ZM460.73 33.7V41.1H464.73V33.7H460.73ZM462.73 39.1H451.43V43.1H462.73V39.1ZM449.43 41.1V75H453.43V41.1H449.43ZM451.43 73H442.03V77H451.43V73ZM444.03 75V41.1H440.03V75H444.03ZM442.03 39.1H434.43V43.1H442.03V39.1ZM436.43 41.1V33.7H432.43V41.1H436.43ZM434.43 35.7H442.03V31.7H434.43V35.7ZM444.03 33.7V15.4H440.03V33.7H444.03Z" fill="black"/>
</g>
</svg>
